<?xml version="1.0" encoding="utf-8"?>
<!-- Generator: Adobe Illustrator 25.4.1, SVG Export Plug-In . SVG Version: 6.00 Build 0)  -->
<svg version="1.1" id="Layer_1" xmlns="http://www.w3.org/2000/svg" xmlns:xlink="http://www.w3.org/1999/xlink" x="0px" y="0px"
	 viewBox="0 0 3148.6 278" style="enable-background:new 0 0 3148.6 278;" xml:space="preserve">
<style type="text/css">
	.st0{enable-background:new    ;}
</style>
<g class="st0">
	<path d="M73.6,142.1H58.2v56.8H13.4V40.7h44.8v66.9H70l36.4-66.9h45.8L104.7,122l47.7,76.9h-46L73.6,142.1z"/>
	<path d="M267.4,142.1c0,33.8-24,58.2-60.6,58.2s-60.6-24.4-60.6-58.2s24-57.7,60.6-57.7S267.4,108.3,267.4,142.1z M223.8,142.1
		c0-13.9-6-22.8-17-22.8s-17,8.9-17,22.8s6,23.2,17,23.2S223.8,156,223.8,142.1z"/>
	<path d="M372.9,88.9l-11.5,41c-4.8-3.8-9.6-5.5-15.1-5.5c-12.2,0-19.9,8.9-19.9,23.7v50.8h-43.1V85.8l35.5-1.2
		c2.9,6.2,5,19.2,5,23.7h0.7c4.1-13.7,12.7-24,30-24C362.1,84.3,367.3,86,372.9,88.9z"/>
	<path d="M487.4,181.4c-5,6.7-21.3,18.9-50.1,18.9c-40,0-62.8-24.4-62.8-58c0-34,23.5-58,59.2-58c33.1,0,52.7,22,52.7,53.7
		c0,7.9-1.2,13.2-1.2,13.2h-67.8c3.1,10.1,10.8,17.7,25.4,17.7c15.1,0,22.3-7.2,26.6-11L487.4,181.4z M416.2,132.5h32.6
		c-0.5-8.6-5.3-16.8-15.1-16.8C425.6,115.7,418.1,120.1,416.2,132.5z"/>
	<path d="M621.3,197.9c0,0-8.1,2.4-19.6,2.4c-18,0-27.1-6-30.7-16.8h-0.5c-3.8,7.7-12.7,16.8-33.5,16.8c-24.2,0-38.3-11.7-38.3-30.9
		c0-31.2,34.5-35.5,69.7-37.4v-3.1c0-7.9-4.6-13.7-13.9-13.7c-9.6,0-13.9,3.6-13.9,8.9c0,0.7,0.2,1.9,0.7,2.6l-36.4,6.2
		c0,0-1.7-5.3-1.7-12.2c0-22.3,20.1-36.4,53.2-36.4c35.7,0,53.7,17,53.7,47.4v29.5c0,4.3,2.2,6,5.8,6c1.4,0,2.6-0.2,4.1-0.7
		L621.3,197.9z M568.4,158.2v-7.7c-16.5,1.4-28.8,2.2-28.8,11.3c0,6,5.3,8.6,10.8,8.6C560.7,170.4,568.4,166.1,568.4,158.2z"/>
	<path d="M649.4,38.8c12.7,0,26.4,7.9,26.4,29.2c0,43.9-33.5,56.8-33.5,56.8l-12.9-16.5c0,0,21.6-10.3,21.6-24.9
		c-14.1,0-24.2-9.3-24.2-22C626.6,48.4,635.7,38.8,649.4,38.8z"/>
	<path d="M749.5,121.5c0-6.5-3.6-11.3-12-11.3c-8.1,0-12,3.6-12,8.1c0,19.2,64.2,2.6,64.2,46.5c0,20.4-17.7,35.5-51.8,35.5
		c-40,0-56.3-16.8-56.3-16.8l17.7-24.7c0,0,19.2,13.9,36.2,13.9c6.7,0,10.1-1.2,10.1-4.1c0-13.4-58.7-5.8-58.7-46.5
		c0-24.9,20.6-37.9,52.2-37.9c28,0,48.2,12.7,48.2,30.7c0,4.6-1,7.4-1,7.4l-37.1,1.9C749.3,124.4,749.5,123.2,749.5,121.5z"/>
	<path d="M897.6,77.2v28.8h55.6v35h-55.6v58h-44.8V40.7h108.5v36.4H897.6z"/>
	<path d="M998.3,75.7c-15.1,0-26.8-10.5-26.8-25.6c0-15.1,11.7-25.9,26.8-25.9s27.1,10.8,27.1,25.9
		C1025.3,65.2,1013.4,75.7,998.3,75.7z M977.2,85.8l43.1-1.2v114.3h-43.1V85.8z"/>
	<path d="M1156.7,129.2v69.7h-43.1v-58.7c0-11-4.6-18.2-14.4-18.2c-10.5,0-15.1,8.6-15.1,18.9v58h-43.1V85.8l35.5-1.2
		c2.9,6.2,5,16.8,5,21.3h1c5-12.5,14.9-21.6,33.5-21.6C1144.7,84.3,1156.7,104.7,1156.7,129.2z"/>
	<path d="M1284.4,181.4c-5,6.7-21.3,18.9-50.1,18.9c-40,0-62.8-24.4-62.8-58c0-34,23.5-58,59.2-58c33.1,0,52.7,22,52.7,53.7
		c0,7.9-1.2,13.2-1.2,13.2h-67.8c3.1,10.1,10.8,17.7,25.4,17.7c15.1,0,22.3-7.2,26.6-11L1284.4,181.4z M1213.2,132.5h32.6
		c-0.5-8.6-5.3-16.8-15.1-16.8C1222.6,115.7,1215.1,120.1,1213.2,132.5z"/>
	<path d="M1361.5,121.5c0-6.5-3.6-11.3-12-11.3c-8.1,0-12,3.6-12,8.1c0,19.2,64.2,2.6,64.2,46.5c0,20.4-17.7,35.5-51.8,35.5
		c-40,0-56.3-16.8-56.3-16.8l17.7-24.7c0,0,19.2,13.9,36.2,13.9c6.7,0,10.1-1.2,10.1-4.1c0-13.4-58.7-5.8-58.7-46.5
		c0-24.9,20.6-37.9,52.2-37.9c28,0,48.2,12.7,48.2,30.7c0,4.6-1,7.4-1,7.4l-37.1,1.9C1361.3,124.4,1361.5,123.2,1361.5,121.5z"/>
	<path d="M1512.3,191.5c0,0-12.7,8.9-37.4,8.9c-30,0-48.9-16.5-48.9-51.5v-31.2h-16.8V85.8h19.2V55.6l40.7-1.2v31.4h36.2v31.9h-36.2
		v29.2c0,12.5,5.3,17,15.6,17c10.1,0,15.8-5.8,15.8-5.8L1512.3,191.5z"/>
	<path d="M1614.1,77.2v28.8h55.6v35h-55.6v58h-44.8V40.7h108.5v36.4H1614.1z"/>
	<path d="M1779.2,88.9l-11.5,41c-4.8-3.8-9.6-5.5-15.1-5.5c-12.2,0-19.9,8.9-19.9,23.7v50.8h-43.1V85.8l35.5-1.2
		c2.9,6.2,5,19.2,5,23.7h0.7c4.1-13.7,12.7-24,30-24C1768.4,84.3,1773.7,86,1779.2,88.9z"/>
	<path d="M1809.2,75.7c-15.1,0-26.8-10.5-26.8-25.6c0-15.1,11.7-25.9,26.8-25.9c15.1,0,27.1,10.8,27.1,25.9
		C1836.2,65.2,1824.3,75.7,1809.2,75.7z M1788.1,85.8l43.1-1.2v114.3h-43.1V85.8z"/>
	<path d="M1959.9,181.4c-5,6.7-21.3,18.9-50.1,18.9c-40,0-62.8-24.4-62.8-58c0-34,23.5-58,59.2-58c33.1,0,52.7,22,52.7,53.7
		c0,7.9-1.2,13.2-1.2,13.2h-67.8c3.1,10.1,10.8,17.7,25.4,17.7c15.1,0,22.3-7.2,26.6-11L1959.9,181.4z M1888.7,132.5h32.6
		c-0.5-8.6-5.3-16.8-15.1-16.8C1898.1,115.7,1890.6,120.1,1888.7,132.5z"/>
	<path d="M2092.9,29.7v169.2l-36.7,1.2c-1.9-6.2-3.8-16.8-3.8-18.9h-0.7c-5.8,11.5-16.3,19.2-33.3,19.2c-29.5,0-46.7-24.9-46.7-56.8
		c0-39.8,24-59.2,48.9-59.2c14.6,0,23.7,5,29.2,12V29.7H2092.9z M2049.7,147.6v-10.3c0-8.6-7.9-16.8-17.7-16.8
		c-10.1,0-16.8,8.4-16.8,23c0,12.5,6.7,20.6,16.8,20.6C2040.9,164.1,2049.7,157.7,2049.7,147.6z"/>
	<path d="M2299.4,102.6l-41.2,6.2c0-14.4-7.2-31.4-26.8-31.4c-18.5,0-32.6,16.3-32.6,42.4c0,30.2,18.5,42.4,37.9,42.4
		c20.1,0,32.6-14.4,37.4-21.1l26.4,27.8c-9.1,12.7-29.5,31.9-64.9,31.9c-49.4,0-82-31.4-82-81c0-49.8,32.3-81,77.2-81
		C2281,38.8,2299.4,72.8,2299.4,102.6z"/>
	<path d="M2430.7,129.2v69.7h-43.1v-58.7c0-11-4.3-18.2-14.6-18.2c-10.5,0-14.9,8.6-14.9,18.9v58H2315V29.7h42.4l0.2,73.3h0.7
		c4.8-11,13.9-18.7,31.4-18.7C2419,84.3,2430.7,104.7,2430.7,129.2z"/>
	<path d="M2471.5,75.7c-15.1,0-26.8-10.5-26.8-25.6c0-15.1,11.7-25.9,26.8-25.9c15.1,0,27.1,10.8,27.1,25.9
		C2498.5,65.2,2486.6,75.7,2471.5,75.7z M2450.4,85.8l43.1-1.2v114.3h-43.1V85.8z"/>
	<path d="M2617.2,125.3c0,5.3-1,8.9-1,8.9l-37.1,1.9c0,0,0.5-1.9,0.5-4.1c0-6-2.9-12.7-11.3-12.7c-9.3,0-15.3,8.9-15.3,21.6
		c0,14.6,6.5,24.7,21.8,24.7c14.4,0,24.9-8.6,27.3-11.5l19.2,26.8c-4.1,6-20.1,19.4-49.8,19.4c-40.3,0-62.1-24.4-62.1-57.7
		c0-34.7,24-58.2,60.1-58.2C2600.1,84.3,2617.2,102.6,2617.2,125.3z"/>
	<path d="M2685.4,156h-7.9v42.9h-43.1V29.7h43.1v94.4h9.8l24-38.3h48.9l-38.3,54.6l43.1,58.5h-51.3L2685.4,156z"/>
	<path d="M2873.3,181.4c-5,6.7-21.3,18.9-50.1,18.9c-40,0-62.8-24.4-62.8-58c0-34,23.5-58,59.2-58c33.1,0,52.7,22,52.7,53.7
		c0,7.9-1.2,13.2-1.2,13.2h-67.8c3.1,10.1,10.8,17.7,25.4,17.7c15.1,0,22.3-7.2,26.6-11L2873.3,181.4z M2802.1,132.5h32.6
		c-0.5-8.6-5.3-16.8-15.1-16.8C2811.5,115.7,2804.1,120.1,2802.1,132.5z"/>
	<path d="M3005.1,129.2v69.7H2962v-58.7c0-11-4.6-18.2-14.4-18.2c-10.5,0-15.1,8.6-15.1,18.9v58h-43.1V85.8l35.5-1.2
		c2.9,6.2,5,16.8,5,21.3h1c5-12.5,14.9-21.6,33.5-21.6C2993.1,84.3,3005.1,104.7,3005.1,129.2z"/>
</g>
</svg>
