<?xml version="1.0" encoding="utf-8"?>
<!-- Generator: Adobe Illustrator 25.4.1, SVG Export Plug-In . SVG Version: 6.00 Build 0)  -->
<svg version="1.1" id="Layer_1" xmlns="http://www.w3.org/2000/svg" xmlns:xlink="http://www.w3.org/1999/xlink" x="0px" y="0px"
	 viewBox="0 0 3148.6 278" style="enable-background:new 0 0 3148.6 278;" xml:space="preserve">
<style type="text/css">
	.st0{enable-background:new    ;}
	.st1{fill:#D6D1C4;}
</style>
<g class="st0">
	<path class="st1" d="M67.6,136.8H50.8v62.1h-34V40.7h34v69h14.6l44.8-69h35.2l-54.6,81l55.1,77.2h-35.7L67.6,136.8z"/>
	<path class="st1" d="M262.6,142.3c0,34-23.7,58-59.4,58c-35.9,0-59.7-24-59.7-58c0-34,23.7-58,59.7-58
		C238.9,84.3,262.6,108.3,262.6,142.3z M229.3,142.3c0-18.2-10.1-31.2-26.1-31.2c-16.3,0-26.4,12.9-26.4,31.2
		c0,18.5,10.1,31.2,26.4,31.2C219.3,173.5,229.3,160.8,229.3,142.3z"/>
	<path class="st1" d="M361.4,87.7l-8.6,31.6c-3.8-2.6-7.9-4.1-12.9-4.1c-12.5,0-23.2,10.1-23.2,29v54.6h-32.8V85.8l25.6-1
		c2.4,7.4,4.1,20.1,4.1,24.9h1c4.3-14.4,13.2-25.4,30.2-25.4C351,84.3,356.3,85.5,361.4,87.7z"/>
	<path class="st1" d="M459.8,162.5l15.6,18c-7.7,10.1-24.2,19.9-48.6,19.9c-38.1,0-60.9-24-60.9-58c0-33.8,22.8-58,57.7-58
		c33.1,0,52,22.5,52,53.4c0,7.2-1,12-1,12h-76.2c2.9,15.1,13.4,25.6,32.1,25.6C446.7,175.4,455,167.7,459.8,162.5z M398.5,132.8
		h47.2c-0.2-13.4-8.4-23.5-22-23.5C410.7,109.3,400.9,117.7,398.5,132.8z"/>
	<path class="st1" d="M608.4,198.2c0,0-6.9,2.2-16.1,2.2c-15.6,0-24-6-26.1-18c-3.6,6.9-12.9,18-36.4,18
		c-24.4,0-38.3-12.2-38.3-31.2c0-28,29.5-35,71.6-35.9h1.4v-5c0-11.5-6.7-19.2-20.6-19.2c-12.5,0-19.4,5-19.4,13.2
		c0,1.7,0.2,3.1,1,4.3l-28.8,4.8c0,0-1.4-4.8-1.4-11c0-21.6,18.9-35.9,50.1-35.9c33.3,0,51.3,16.8,51.3,45.3v36.9
		c0,5.3,1.9,7.4,6.2,7.4c1.4,0,2.9-0.2,4.1-0.7L608.4,198.2z M564.6,158.9v-9.1h-1.4c-27.1,0.7-39.8,4.6-39.8,15.1
		c0,7.4,6,11.3,15.8,11.3C555,176.1,564.6,168,564.6,158.9z"/>
	<path class="st1" d="M637.9,38.8c11.3,0,21.8,7.7,21.8,24.2c0,37.1-29.2,51-29.2,51l-11.3-14.1c0,0,18.9-10.8,18.9-24.9
		c-11,0-19.4-7.4-19.4-18S626.1,38.8,637.9,38.8z"/>
	<path class="st1" d="M739.7,121.3c0-9.1-6.7-14.9-18.2-14.9c-10.8,0-16.8,5-16.8,11.7c0,22.8,66.1,4.8,66.4,48.4
		c0.2,20.4-18.5,33.8-49.4,33.8c-34.3,0-49.8-14.4-52.7-16.8l15.3-19.9c2.4,2.2,19.2,13.7,36.2,13.7c11.5,0,17-3.4,17-8.9
		c0-18.2-63.3-7.2-63.3-48.4c0-22,19.2-35.7,48.4-35.7c27.3,0,46.5,13.2,46.5,31.6c0,4.6-1,7.7-1,7.7l-29,1.7
		C739.5,124.4,739.7,122.9,739.7,121.3z"/>
	<path class="st1" d="M878.7,68.8v38.8h58.9v27.6h-58.9v63.7h-34V40.7H947v28H878.7z"/>
	<path class="st1" d="M983.2,70c-11.7,0-21.1-8.4-21.1-20.4c0-11.7,9.3-20.4,21.1-20.4s21.3,8.6,21.3,20.4
		C1004.5,61.6,994.9,70,983.2,70z M966.6,85.8l32.8-1v114.1h-32.8V85.8z"/>
	<path class="st1" d="M1136.1,129.4v69.5h-32.8v-63.7c0-13.4-6.7-22.5-19.9-22.5c-16.8,0-24,14.6-24,27.8v58.5h-32.8V85.8l25.6-1
		c2.4,7.4,4.1,18.9,4.1,23.7h1c5.5-13.4,16.5-24.2,36.7-24.2C1121.9,84.3,1136.1,103.8,1136.1,129.4z"/>
	<path class="st1" d="M1250.1,162.5l15.6,18c-7.7,10.1-24.2,19.9-48.6,19.9c-38.1,0-60.9-24-60.9-58c0-33.8,22.8-58,57.7-58
		c33.1,0,52,22.5,52,53.4c0,7.2-1,12-1,12h-76.2c2.9,15.1,13.4,25.6,32.1,25.6C1236.9,175.4,1245.3,167.7,1250.1,162.5z
		 M1188.8,132.8h47.2c-0.2-13.4-8.4-23.5-22-23.5C1201,109.3,1191.2,117.7,1188.8,132.8z"/>
	<path class="st1" d="M1350,121.3c0-9.1-6.7-14.9-18.2-14.9c-10.8,0-16.8,5-16.8,11.7c0,22.8,66.1,4.8,66.4,48.4
		c0.2,20.4-18.5,33.8-49.4,33.8c-34.3,0-49.8-14.4-52.7-16.8l15.3-19.9c2.4,2.2,19.2,13.7,36.2,13.7c11.5,0,17-3.4,17-8.9
		c0-18.2-63.3-7.2-63.3-48.4c0-22,19.2-35.7,48.4-35.7c27.3,0,46.5,13.2,46.5,31.6c0,4.6-1,7.7-1,7.7l-29,1.7
		C1349.8,124.4,1350,122.9,1350,121.3z"/>
	<path class="st1" d="M1488.8,192.2c0,0-12,8.1-33.8,8.1c-29.7,0-45.3-16.1-45.3-48.2v-41.5h-17.3V85.8h18.7V53.9l31.6-1.2v33.1
		h39.8v24.9h-39.8v40c0,15.1,5.8,21.8,18.5,21.8c11.5,0,18.2-6,18.2-6L1488.8,192.2z"/>
	<path class="st1" d="M1589.2,68.8v38.8h58.9v27.6h-58.9v63.7h-34V40.7h102.3v28H1589.2z"/>
	<path class="st1" d="M1750.2,87.7l-8.6,31.6c-3.8-2.6-7.9-4.1-12.9-4.1c-12.5,0-23.2,10.1-23.2,29v54.6h-32.8V85.8l25.6-1
		c2.4,7.4,4.1,20.1,4.1,24.9h1c4.3-14.4,13.2-25.4,30.2-25.4C1739.9,84.3,1745.2,85.5,1750.2,87.7z"/>
	<path class="st1" d="M1780.2,70c-11.7,0-21.1-8.4-21.1-20.4c0-11.7,9.3-20.4,21.1-20.4s21.3,8.6,21.3,20.4
		C1801.5,61.6,1791.9,70,1780.2,70z M1763.6,85.8l32.8-1v114.1h-32.8V85.8z"/>
	<path class="st1" d="M1911.7,162.5l15.6,18c-7.7,10.1-24.2,19.9-48.6,19.9c-38.1,0-60.9-24-60.9-58c0-33.8,22.8-58,57.7-58
		c33.1,0,52,22.5,52,53.4c0,7.2-1,12-1,12h-76.2c2.9,15.1,13.4,25.6,32.1,25.6C1898.5,175.4,1906.9,167.7,1911.7,162.5z
		 M1850.4,132.8h47.2c-0.2-13.4-8.4-23.5-22-23.5C1862.6,109.3,1852.8,117.7,1850.4,132.8z"/>
	<path class="st1" d="M2061.7,29.7v169.2l-26.6,1c-1.7-6.9-3.4-19.2-3.1-22.3h-0.7c-6.2,13.4-18.2,22.8-37.6,22.8
		c-30.7,0-50.1-24.2-50.1-57.5c0-37.4,23-58.5,51.8-58.5c16.3,0,27.1,6.2,33.5,15.3v-70H2061.7z M2028.9,146.2v-7.7
		c0-12.5-9.3-26.6-26.8-26.6c-15.3,0-25.2,12-25.2,30.9c0,18,10.1,30,25.9,30S2028.9,159.4,2028.9,146.2z"/>
	<path class="st1" d="M2271.9,98l-31.4,4.8c0-14.6-8.9-34.3-32.6-34.3c-22.8,0-40.7,19.2-40.7,51.3c0,36.4,21.8,51.3,45.3,51.3
		c20.4,0,34-13.4,40.5-22.5l20.1,21.1c-6.9,10.1-26.4,30.9-61.6,30.9c-47,0-78.6-30.7-78.6-80.8c0-49.4,31.2-80.8,74.5-80.8
		C2254.8,39.1,2271.9,72.6,2271.9,98z"/>
	<path class="st1" d="M2402.4,129.4v69.5h-33.1v-63.7c0-13.4-6.5-22.5-19.9-22.5c-16.8,0-24,14.4-24,27.8v58.5h-32.8V29.7h32.1
		l0.2,74.5h0.7c5.8-11.5,16.1-19.9,34.3-19.9C2388.3,84.3,2402.4,103.8,2402.4,129.4z"/>
	<path class="st1" d="M2444.6,70c-11.7,0-21.1-8.4-21.1-20.4c0-11.7,9.3-20.4,21.1-20.4c11.7,0,21.3,8.6,21.3,20.4
		C2465.9,61.6,2456.4,70,2444.6,70z M2428.1,85.8l32.8-1v114.1h-32.8V85.8z"/>
	<path class="st1" d="M2588.2,124.1c0,5-0.7,8.4-0.7,8.4l-29,1.7c0.2-0.5,0.5-2.6,0.5-5c0-9.6-6.2-18-18.7-18
		c-14.9,0-24.9,12.2-24.9,30.4c0,19.2,9.8,31.9,29.2,31.9c17.7,0,27.6-9.1,30.9-13.2l16.1,20.6c-7.2,9.1-23.7,19.4-49.1,19.4
		c-37.9,0-60.4-24-60.4-57.5c0-34.7,24-58.5,58.7-58.5C2570.7,84.3,2588.2,102.1,2588.2,124.1z"/>
	<path class="st1" d="M2653.3,151.7H2643v47.2h-32.8V29.7h32.8v97h13.2l30.2-41h37.4l-42.7,54.2l47.4,58.9h-39.8L2653.3,151.7z"/>
	<path class="st1" d="M2821.8,162.5l15.6,18c-7.7,10.1-24.2,19.9-48.6,19.9c-38.1,0-60.9-24-60.9-58c0-33.8,22.8-58,57.7-58
		c33.1,0,52,22.5,52,53.4c0,7.2-1,12-1,12h-76.2c2.9,15.1,13.4,25.6,32.1,25.6C2808.6,175.4,2817,167.7,2821.8,162.5z M2760.4,132.8
		h47.2c-0.2-13.4-8.4-23.5-22-23.5C2772.7,109.3,2762.8,117.7,2760.4,132.8z"/>
	<path class="st1" d="M2968.7,129.4v69.5h-32.8v-63.7c0-13.4-6.7-22.5-19.9-22.5c-16.8,0-24,14.6-24,27.8v58.5h-32.8V85.8l25.6-1
		c2.4,7.4,4.1,18.9,4.1,23.7h1c5.5-13.4,16.5-24.2,36.7-24.2C2954.5,84.3,2968.7,103.8,2968.7,129.4z"/>
</g>
</svg>
