<svg version="1.2" xmlns="http://www.w3.org/2000/svg" viewBox="0 0 2298 281" width="2298" height="281">
	<title>1-svg</title>
	<style>
		.s0 { fill: none;stroke: #e4002b;stroke-miterlimit:10;stroke-width: 3 } 
	</style>
	<g id="Layer">
		<path id="Layer" fill-rule="evenodd" class="s0" d="m85.1 138.3h-16.8v62.1h-34v-158.2h34v69h14.6l44.8-69h35.3l-54.6 81 55.1 77.2h-35.7z"/>
		<path id="Layer" fill-rule="evenodd" class="s0" d="m280.1 143.8c0 34-23.7 58-59.4 58-35.9 0-59.7-24-59.7-58 0-34 23.7-58 59.7-58 35.7 0 59.4 24 59.4 58zm-33.3 0c0-18.2-10.1-31.2-26.1-31.2-16.3 0-26.4 12.9-26.4 31.2 0 18.5 10.1 31.2 26.4 31.2 16.1 0 26.1-12.7 26.1-31.2z"/>
		<path id="Layer" fill-rule="evenodd" class="s0" d="m378.9 89.2l-8.6 31.6c-3.8-2.6-7.9-4.1-12.9-4.1-12.5 0-23.2 10.1-23.2 29v54.6h-32.8v-113l25.6-1c2.4 7.4 4.1 20.1 4.1 24.9h1c4.3-14.4 13.2-25.4 30.2-25.4 6.2 0 11.5 1.2 16.6 3.4z"/>
		<path id="Layer" fill-rule="evenodd" class="s0" d="m477.3 164l15.6 18c-7.7 10.1-24.2 19.9-48.6 19.9-38.1 0-60.9-24-60.9-58 0-33.8 22.8-58 57.7-58 33.1 0 52 22.5 52 53.4 0 7.2-1 12-1 12h-76.1c2.9 15.1 13.4 25.6 32.1 25.6 16.1 0 24.4-7.7 29.2-12.9zm-61.3-29.7h47.2c-0.2-13.4-8.4-23.5-22-23.5-13 0-22.8 8.4-25.2 23.5z"/>
		<path id="Layer" fill-rule="evenodd" class="s0" d="m625.9 199.7c0 0-6.9 2.2-16.1 2.2-15.6 0-24-6-26.1-18-3.6 6.9-12.9 18-36.4 18-24.4 0-38.3-12.2-38.3-31.2 0-28 29.5-35 71.6-35.9h1.4v-5c0-11.5-6.7-19.2-20.6-19.2-12.5 0-19.4 5-19.4 13.2 0 1.7 0.2 3.1 1 4.3l-28.8 4.8c0 0-1.4-4.8-1.4-11 0-21.6 18.9-35.9 50.1-35.9 33.3 0 51.3 16.8 51.3 45.3v36.7c0 5.3 1.9 7.4 6.2 7.4 1.4 0 2.9-0.2 4.1-0.7zm-43.8-39.3v-9.1h-1.4c-27.1 0.7-39.8 4.6-39.8 15.1 0 7.4 6 11.3 15.8 11.3 15.8-0.1 25.4-8.2 25.4-17.3z"/>
		<path id="Layer" fill-rule="evenodd" class="s0" d="m748.6 130.9v69.5h-32.8v-63.7c0-13.4-6.7-22.5-19.9-22.5-16.8 0-24 14.6-24 27.8v58.5h-32.9v-113.2l25.6-1c2.4 7.4 4.1 18.9 4.1 23.7h1c5.5-13.4 16.5-24.2 36.7-24.2 28 0 42.2 19.5 42.2 45.1z"/>
		<path id="Layer" fill-rule="evenodd" class="s0" d="m879.7 70.3v38.8h58.9v27.6h-58.9v63.7h-34v-158.2h102.3v28h-68.3z"/>
		<path id="Layer" fill-rule="evenodd" class="s0" d="m1040.7 89.2l-8.6 31.6c-3.8-2.6-7.9-4.1-12.9-4.1-12.5 0-23.2 10.1-23.2 29v54.6h-32.8v-113l25.6-1c2.4 7.4 4.1 20.1 4.1 24.9h1c4.3-14.4 13.2-25.4 30.2-25.4 6.3 0 11.6 1.2 16.6 3.4z"/>
		<path id="Layer" fill-rule="evenodd" class="s0" d="m1092 51.1c0-11.8-9.5-20.4-21.3-20.4-11.8 0-21.1 8.7-21.1 20.4 0 12 9.4 20.4 21.1 20.4 11.7 0 21.3-8.4 21.3-20.4zm-37.9 149.3h32.8v-114.1l-32.8 1z"/>
		<path id="Layer" fill-rule="evenodd" class="s0" d="m1202.2 164l15.6 18c-7.7 10.1-24.2 19.9-48.6 19.9-38.1 0-60.9-24-60.9-58 0-33.8 22.8-58 57.7-58 33.1 0 52 22.5 52 53.4 0 7.2-1 12-1 12h-76.2c2.9 15.1 13.4 25.6 32.1 25.6 16.1 0 24.5-7.7 29.3-12.9zm-61.3-29.7h47.2c-0.2-13.4-8.4-23.5-22-23.5-13 0-22.8 8.4-25.2 23.5z"/>
		<path id="Layer" fill-rule="evenodd" class="s0" d="m1352.2 31.2v169.2l-26.6 1c-1.7-6.9-3.4-19.2-3.1-22.3h-0.7c-6.2 13.4-18.2 22.8-37.6 22.8-30.7 0-50.1-24.2-50.1-57.5 0-37.4 23-58.5 51.8-58.5 16.3 0 27.1 6.2 33.5 15.3v-70zm-32.8 116.5v-7.7c0-12.5-9.3-26.6-26.8-26.6-15.3 0-25.2 12-25.2 30.9 0 18 10.1 30 25.9 30 15.8 0 26.1-13.4 26.1-26.6z"/>
		<path id="Layer" fill-rule="evenodd" class="s0" d="m1562.4 99.5l-31.4 4.8c0-14.6-8.9-34.3-32.6-34.3-22.8 0-40.7 19.2-40.7 51.3 0 36.4 21.8 51.3 45.3 51.3 20.4 0 34-13.4 40.5-22.5l20.1 21.1c-6.9 10.1-26.4 30.9-61.6 30.9-47 0-78.6-30.7-78.6-80.8 0-49.4 31.2-80.8 74.5-80.8 47.4 0.1 64.5 33.6 64.5 59z"/>
		<path id="Layer" fill-rule="evenodd" class="s0" d="m1692.9 130.9v69.5h-33.1v-63.7c0-13.4-6.5-22.5-19.9-22.5-16.8 0-24 14.4-24 27.8v58.5h-32.8v-169.3h32.1l0.2 74.5h0.7c5.8-11.5 16.1-19.9 34.3-19.9 28.4 0 42.5 19.5 42.5 45.1z"/>
		<path id="Layer" fill-rule="evenodd" class="s0" d="m1756.4 51.1c0-11.8-9.6-20.4-21.3-20.4-11.8 0-21.1 8.7-21.1 20.4 0 12 9.4 20.4 21.1 20.4 11.8 0 21.3-8.4 21.3-20.4zm-37.8 149.3h32.8v-114.1l-32.8 1z"/>
		<path id="Layer" fill-rule="evenodd" class="s0" d="m1878.7 125.6c0 5-0.7 8.4-0.7 8.4l-29 1.7c0.2-0.5 0.5-2.6 0.5-5 0-9.6-6.2-18-18.7-18-14.9 0-24.9 12.2-24.9 30.4 0 19.2 9.8 31.9 29.2 31.9 17.7 0 27.6-9.1 30.9-13.2l16.1 20.6c-7.2 9.1-23.7 19.4-49.1 19.4-37.9 0-60.4-24-60.4-57.5 0-34.7 24-58.5 58.7-58.5 29.9 0 47.4 17.8 47.4 39.8z"/>
		<path id="Layer" fill-rule="evenodd" class="s0" d="m1943.8 153.2h-10.3v47.2h-32.8v-169.2h32.8v97h13.2l30.2-41h37.4l-42.7 54.2 47.4 58.9h-39.8z"/>
		<path id="Layer" fill-rule="evenodd" class="s0" d="m2112.3 164l15.6 18c-7.7 10.1-24.2 19.9-48.6 19.9-38.1 0-60.9-24-60.9-58 0-33.8 22.8-58 57.7-58 33.1 0 52 22.5 52 53.4 0 7.2-1 12-1 12h-76.2c2.9 15.1 13.4 25.6 32.1 25.6 16.1 0 24.5-7.7 29.3-12.9zm-61.4-29.7h47.2c-0.2-13.4-8.4-23.5-22-23.5-12.9 0-22.8 8.4-25.2 23.5z"/>
		<path id="Layer" fill-rule="evenodd" class="s0" d="m2259.2 130.9v69.5h-32.8v-63.7c0-13.4-6.7-22.5-19.9-22.5-16.8 0-24 14.6-24 27.8v58.5h-32.8v-113.2l25.6-1c2.4 7.4 4.1 18.9 4.1 23.7h1c5.5-13.4 16.5-24.2 36.7-24.2 27.9 0 42.1 19.5 42.1 45.1z"/>
	</g>
</svg>