<svg version="1.2" xmlns="http://www.w3.org/2000/svg" viewBox="0 0 2316 278" width="2316" height="278">
	<title>2-svg</title>
	<style>
		.s0 { fill: #000000 } 
	</style>
	<g id="Layer">
		<path id="Layer" class="s0" d="m99.6 142.1h-15.4v56.8h-44.8v-158.2h44.8v66.9h11.8l36.4-66.9h45.8l-47.5 81.3 47.7 76.9h-46z"/>
		<path id="Layer" fill-rule="evenodd" class="s0" d="m293.4 142.1c0 33.8-24 58.2-60.6 58.2-36.6 0-60.6-24.4-60.6-58.2 0-33.8 24-57.7 60.6-57.7 36.6 0 60.6 23.9 60.6 57.7zm-43.6 0c0-13.9-6-22.8-17-22.8-11 0-17 8.9-17 22.8 0 13.9 6 23.2 17 23.2 11 0 17-9.3 17-23.2z"/>
		<path id="Layer" class="s0" d="m398.9 88.9l-11.5 41c-4.8-3.8-9.6-5.5-15.1-5.5-12.2 0-19.9 8.9-19.9 23.7v50.8h-43.1v-113.1l35.5-1.2c2.9 6.2 5 19.2 5 23.7h0.7c4.1-13.7 12.7-24 30-24 7.6 0 12.8 1.7 18.4 4.6z"/>
		<path id="Layer" fill-rule="evenodd" class="s0" d="m513.4 181.4c-5 6.7-21.3 18.9-50.1 18.9-40 0-62.8-24.4-62.8-58 0-34 23.5-58 59.2-58 33.1 0 52.7 22 52.7 53.7 0 7.9-1.2 13.2-1.2 13.2h-67.8c3.1 10.1 10.8 17.7 25.4 17.7 15.1 0 22.3-7.2 26.6-11zm-71.2-48.9h32.6c-0.5-8.6-5.3-16.8-15.1-16.8-8.1 0-15.6 4.4-17.5 16.8z"/>
		<path id="Layer" fill-rule="evenodd" class="s0" d="m647.3 197.9c0 0-8.1 2.4-19.6 2.4-18 0-27.1-6-30.7-16.8h-0.5c-3.8 7.7-12.7 16.8-33.5 16.8-24.2 0-38.3-11.7-38.3-30.9 0-31.2 34.5-35.5 69.7-37.4v-3.1c0-7.9-4.6-13.7-13.9-13.7-9.6 0-13.9 3.6-13.9 8.9 0 0.7 0.2 1.9 0.7 2.6l-36.4 6.2c0 0-1.7-5.3-1.7-12.2 0-22.3 20.1-36.4 53.2-36.4 35.7 0 53.7 17 53.7 47.4v29.5c0 4.3 2.2 6 5.8 6 1.4 0 2.6-0.2 4.1-0.7zm-52.9-39.7v-7.7c-16.5 1.4-28.8 2.2-28.8 11.3 0 6 5.3 8.6 10.8 8.6 10.3 0 18-4.3 18-12.2z"/>
		<path id="Layer" class="s0" d="m783.7 129.2v69.7h-43.1v-58.7c0-11-4.6-18.2-14.4-18.2-10.5 0-15.1 8.6-15.1 18.9v58h-43.1v-113.1l35.5-1.2c2.9 6.2 5 16.8 5 21.3h1c5-12.5 14.9-21.6 33.5-21.6 28.7 0 40.7 20.4 40.7 44.9z"/>
		<path id="Layer" class="s0" d="m900.1 77.2v28.8h55.6v35h-55.6v58h-44.8v-158.3h108.5v36.4h-63.7z"/>
		<path id="Layer" class="s0" d="m1065.2 88.9l-11.5 41c-4.8-3.8-9.6-5.5-15.1-5.5-12.2 0-19.9 8.9-19.9 23.7v50.8h-43.1v-113.1l35.5-1.2c2.9 6.2 5 19.2 5 23.7h0.7c4.1-13.7 12.7-24 30-24 7.6 0 12.9 1.7 18.4 4.6z"/>
		<path id="Layer" class="s0" d="m1095.2 75.7c-15.1 0-26.8-10.5-26.8-25.6 0-15.1 11.7-25.9 26.8-25.9 15.1 0 27.1 10.8 27.1 25.9-0.1 15.1-12 25.6-27.1 25.6zm-21.1 10.1l43.1-1.2v114.3h-43.1z"/>
		<path id="Layer" fill-rule="evenodd" class="s0" d="m1245.9 181.4c-5 6.7-21.3 18.9-50.1 18.9-40 0-62.8-24.4-62.8-58 0-34 23.5-58 59.2-58 33.1 0 52.7 22 52.7 53.7 0 7.9-1.2 13.2-1.2 13.2h-67.8c3.1 10.1 10.8 17.7 25.4 17.7 15.1 0 22.3-7.2 26.6-11zm-71.2-48.9h32.6c-0.5-8.6-5.3-16.8-15.1-16.8-8.1 0-15.6 4.4-17.5 16.8z"/>
		<path id="Layer" fill-rule="evenodd" class="s0" d="m1378.9 29.7v169.2l-36.7 1.2c-1.9-6.2-3.8-16.8-3.8-18.9h-0.7c-5.8 11.5-16.3 19.2-33.3 19.2-29.5 0-46.7-24.9-46.7-56.8 0-39.8 24-59.2 48.9-59.2 14.6 0 23.7 5 29.2 12v-66.7zm-43.2 117.9v-10.3c0-8.6-7.9-16.8-17.7-16.8-10.1 0-16.8 8.4-16.8 23 0 12.5 6.7 20.6 16.8 20.6 8.9 0 17.7-6.4 17.7-16.5z"/>
		<path id="Layer" class="s0" d="m1585.4 102.6l-41.2 6.2c0-14.4-7.2-31.4-26.8-31.4-18.5 0-32.6 16.3-32.6 42.4 0 30.2 18.5 42.4 37.9 42.4 20.1 0 32.6-14.4 37.4-21.1l26.4 27.8c-9.1 12.7-29.5 31.9-64.9 31.9-49.4 0-82-31.4-82-81 0-49.8 32.3-81 77.2-81 50.2 0 68.6 34 68.6 63.8z"/>
		<path id="Layer" class="s0" d="m1716.7 129.2v69.7h-43.1v-58.7c0-11-4.3-18.2-14.6-18.2-10.5 0-14.9 8.6-14.9 18.9v58h-43.1v-169.2h42.4l0.2 73.3h0.7c4.8-11 13.9-18.7 31.4-18.7 29.3 0 41 20.4 41 44.9z"/>
		<path id="Layer" class="s0" d="m1757.5 75.7c-15.1 0-26.8-10.5-26.8-25.6 0-15.1 11.7-25.9 26.8-25.9 15.1 0 27.1 10.8 27.1 25.9-0.1 15.1-12 25.6-27.1 25.6zm-21.1 10.1l43.1-1.2v114.3h-43.1z"/>
		<path id="Layer" class="s0" d="m1903.2 125.3c0 5.3-1 8.9-1 8.9l-37.1 1.9c0 0 0.5-1.9 0.5-4.1 0-6-2.9-12.7-11.3-12.7-9.3 0-15.3 8.9-15.3 21.6 0 14.6 6.5 24.7 21.8 24.7 14.4 0 24.9-8.6 27.3-11.5l19.2 26.8c-4.1 6-20.1 19.4-49.8 19.4-40.3 0-62.1-24.4-62.1-57.7 0-34.7 24-58.2 60.1-58.2 30.6-0.1 47.7 18.2 47.7 40.9z"/>
		<path id="Layer" class="s0" d="m1971.4 156h-7.9v42.9h-43.1v-169.2h43.1v94.4h9.8l24-38.3h48.9l-38.3 54.6 43.1 58.5h-51.3z"/>
		<path id="Layer" fill-rule="evenodd" class="s0" d="m2159.3 181.4c-5 6.7-21.3 18.9-50.1 18.9-40 0-62.8-24.4-62.8-58 0-34 23.5-58 59.2-58 33.1 0 52.7 22 52.7 53.7 0 7.9-1.2 13.2-1.2 13.2h-67.8c3.1 10.1 10.8 17.7 25.4 17.7 15.1 0 22.3-7.2 26.6-11zm-71.2-48.9h32.6c-0.5-8.6-5.3-16.8-15.1-16.8-8.1 0-15.5 4.4-17.5 16.8z"/>
		<path id="Layer" class="s0" d="m2291.1 129.2v69.7h-43.1v-58.7c0-11-4.6-18.2-14.4-18.2-10.5 0-15.1 8.6-15.1 18.9v58h-43.1v-113.1l35.5-1.2c2.9 6.2 5 16.8 5 21.3h1c5-12.5 14.9-21.6 33.5-21.6 28.7 0 40.7 20.4 40.7 44.9z"/>
	</g>
</svg>