<svg xmlns="http://www.w3.org/2000/svg" version="1.1" xmlns:xlink="http://www.w3.org/1999/xlink" xmlns:svgjs="http://svgjs.dev/svgjs" width="2000" height="550" viewBox="0 0 2000 550"><g transform="matrix(1,0,0,1,-1.2121212121212466,-1.0159891105098495)"><svg viewBox="0 0 396 109" data-background-color="#f7f7f3" preserveAspectRatio="xMidYMid meet" height="550" width="2000" xmlns="http://www.w3.org/2000/svg" xmlns:xlink="http://www.w3.org/1999/xlink"><g id="tight-bounds" transform="matrix(1,0,0,1,0.2400000000000091,0.20135056917376914)"><svg viewBox="0 0 395.52 108.59729886165246" height="108.59729886165246" width="395.52"><g><svg viewBox="0 0 695.1438857532792 190.86455378488887" height="108.59729886165246" width="395.52"><g><rect width="8.851194306361329" height="171.16420702840995" x="418.69066572345895" y="9.850173378239461" fill="#000000" opacity="1" stroke-width="0" stroke="transparent" fill-opacity="1" class="rect-yte-0" data-fill-palette-color="secondary" rx="1%" id="yte-0" data-palette-color="#bfbf2f"></rect></g><g transform="matrix(1,0,0,1,0,10.275954987762859)"><svg viewBox="0 0 395.52 170.31264380936315" height="170.31264380936315" width="395.52"><g id="textblocktransform"><svg viewBox="0 0 395.52 170.31264380936315" height="170.31264380936315" width="395.52" id="textblock"><g><svg viewBox="0 0 395.52 98.14917960088691" height="98.14917960088691" width="395.52"><g transform="matrix(1,0,0,1,0,0)"><svg width="395.52" viewBox="1.34 -32.45 132.12 32.790000000000006" height="98.14917960088691" data-palette-color="#bfbf2f"><g class="wordmark-text-0" data-fill-palette-color="primary" id="text-0"><path d="M20.56-29.1L19.46-27.03Q19.09-26.34 18.46-26.34L18.46-26.34Q18.09-26.34 17.59-26.72 17.09-27.1 16.37-27.55 15.65-28 14.64-28.38 13.62-28.76 12.21-28.76L12.21-28.76Q10.86-28.76 9.85-28.38 8.84-28 8.17-27.33 7.5-26.66 7.15-25.77 6.81-24.88 6.81-23.85L6.81-23.85Q6.81-22.51 7.43-21.63 8.06-20.75 9.07-20.13 10.08-19.51 11.38-19.04 12.67-18.58 14.01-18.09 15.36-17.6 16.65-16.98 17.94-16.36 18.96-15.42 19.97-14.48 20.59-13.11 21.22-11.74 21.22-9.77L21.22-9.77Q21.22-7.64 20.53-5.8 19.85-3.96 18.54-2.59 17.24-1.22 15.33-0.44 13.43 0.34 10.99 0.34L10.99 0.34Q8.03 0.34 5.55-0.79 3.08-1.93 1.34-3.86L1.34-3.86 2.64-5.96Q2.81-6.23 3.06-6.38 3.32-6.54 3.66-6.54L3.66-6.54Q4.13-6.54 4.7-6.04 5.27-5.54 6.13-4.94 6.98-4.35 8.19-3.85 9.4-3.34 11.08-3.34L11.08-3.34Q12.5-3.34 13.6-3.76 14.7-4.17 15.47-4.93 16.24-5.69 16.64-6.75 17.04-7.81 17.04-9.11L17.04-9.11Q17.04-10.55 16.42-11.47 15.8-12.4 14.78-13.02 13.77-13.65 12.48-14.07 11.18-14.5 9.84-14.97 8.5-15.43 7.2-16.03 5.91-16.63 4.9-17.6 3.88-18.58 3.26-20.02 2.64-21.46 2.64-23.61L2.64-23.61Q2.64-25.29 3.27-26.89 3.91-28.49 5.11-29.72 6.32-30.96 8.09-31.7 9.86-32.45 12.16-32.45L12.16-32.45Q14.72-32.45 16.86-31.59 18.99-30.74 20.56-29.1L20.56-29.1ZM43.36-11.69L43.36-11.69Q43.67-11.13 43.93-10.55 44.19-9.96 44.43-9.35L44.43-9.35Q44.68-9.99 44.93-10.57 45.19-11.16 45.48-11.69L45.48-11.69 56.81-31.35Q57.1-31.86 57.44-31.97 57.79-32.08 58.37-32.08L58.37-32.08 61.64-32.08 61.64 0 57.71 0 57.71-23.41Q57.71-23.9 57.75-24.5 57.79-25.1 57.83-25.71L57.83-25.71 46.38-5.59Q45.82-4.59 44.77-4.59L44.77-4.59 44.14-4.59Q43.09-4.59 42.53-5.59L42.53-5.59 30.81-25.68Q30.95-24.46 30.95-23.41L30.95-23.41 30.95 0 27.05 0 27.05-32.08 30.32-32.08Q30.91-32.08 31.24-31.97 31.56-31.86 31.88-31.32L31.88-31.32 43.36-11.69ZM73.53-32.08L73.53-3.74 85.91-3.74 85.91 0 69.09 0 69.09-32.08 73.53-32.08ZM90.28-32.08L109.03-32.08 109.03-28.47 94.74-28.47 94.74-17.94 106.24-17.94 106.24-14.45 94.74-14.45 94.74-3.61 109.05-3.61 109.03 0 90.28 0 90.28-32.08ZM114.69-32.08L133.44-32.08 133.44-28.47 119.16-28.47 119.16-17.94 130.65-17.94 130.65-14.45 119.16-14.45 119.16-3.61 133.46-3.61 133.44 0 114.69 0 114.69-32.08Z" fill="#000000" data-fill-palette-color="primary"></path></g></svg></g></svg></g><g transform="matrix(1,0,0,1,19.77600000000001,121.31984532434589)"><svg viewBox="0 0 375.74399999999997 48.99279848501726" height="48.99279848501726" width="375.74399999999997"><g transform="matrix(1,0,0,1,0,0)"><svg width="375.74399999999997" viewBox="4.49 -43.29 438.28999999999996 57.16" height="48.99279848501726" data-palette-color="#bfbf2f"><path d="M19.53-28.15L19.53-28.15Q25.68-28.15 27.32-22.66L27.32-22.66Q29.76-26.59 33.79-27.78L33.79-27.78Q35.16-28.17 37.23-28.17 39.31-28.17 41.25-27.15 43.19-26.12 44.13-24.48 45.07-22.83 45.32-20.85 45.58-18.87 45.58-16.6L45.58-16.6 45.58-1.61Q45.58-0.93 45.14-0.46 44.7 0 43.85 0L43.85 0 41.46 0Q40.53 0 40.09-0.46 39.65-0.93 39.65-1.61L39.65-1.61 39.65-16.82Q39.65-19.97 38.56-21.51 37.48-23.05 35.13-23.05L35.13-23.05Q32.47-23.05 30.47-20.7L30.47-20.7Q28.32-18.26 28.32-14.65L28.32-14.65 28.32-1.61Q28.32-0.93 27.88-0.46 27.44 0 26.59 0L26.59 0 24.19 0Q23.27 0 22.83-0.46 22.39-0.93 22.39-1.61L22.39-1.61 22.39-16.82Q22.39-19.97 21.3-21.51 20.21-23.05 17.87-23.05L17.87-23.05Q15.21-23.05 13.18-20.7L13.18-20.7Q11.06-18.26 11.06-14.65L11.06-14.65 11.06-1.61Q11.06-0.93 10.64-0.46 10.23 0 9.38 0L9.38 0 6.86 0Q6.01 0 5.57-0.46 5.13-0.93 5.13-1.61L5.13-1.61 5.13-16.6Q5.13-21.51 4.81-23.45 4.49-25.39 4.49-25.78L4.49-25.78Q4.49-27.54 6.18-27.54L6.18-27.54 7.52-27.54Q8.89-27.54 9.38-26.51L9.38-26.51Q9.96-25.27 10.5-22.66L10.5-22.66Q12.62-26.49 16.65-27.73L16.65-27.73Q18.02-28.15 19.53-28.15ZM76.51-1.29L76.51-1.29Q76.51 0 75.24 0L75.24 0 72.87 0Q71.92 0 71.73-0.38 71.53-0.76 71.51-1.06 71.48-1.37 71.41-1.81L71.41-1.81Q71.26-3 70.99-4.39L70.99-4.39Q69.09-0.9 65.01 0.22L65.01 0.22Q63.57 0.61 61.84 0.61 60.1 0.61 58.37 0.04 56.64-0.54 55.3-1.66L55.3-1.66Q52.27-4.2 52.27-8.33L52.27-8.33Q52.27-12.84 55.59-15.23L55.59-15.23Q58.32-17.16 62.62-17.16 66.92-17.16 69.89-14.65L69.89-14.65Q69.97-15.48 69.97-16.72 69.97-17.97 69.48-19.21 68.99-20.46 68.09-21.29L68.09-21.29Q66.23-22.92 62.91-22.92L62.91-22.92Q59.93-22.92 56.86-21.29L56.86-21.29Q56.27-20.97 55.83-20.97L55.83-20.97Q55.17-20.97 54.56-22.27L54.56-22.27Q53.9-23.58 53.9-24.17L53.9-24.17Q53.9-25.24 55.52-26.25L55.52-26.25Q58.59-28.15 63.74-28.15L63.74-28.15Q68.43-28.15 71.51-25.59L71.51-25.59Q75.14-22.51 75.14-16.89L75.14-16.89Q75.14-14.4 74.34-10.62L74.34-10.62Q76.41-4.71 76.51-1.29ZM60.15-11.66Q59.15-10.91 58.73-10.18 58.3-9.45 58.3-8.46 58.3-7.47 58.65-6.7 59.01-5.93 59.64-5.42L59.64-5.42Q60.98-4.37 62.66-4.37 64.33-4.37 65.4-4.76 66.48-5.15 67.26-5.76L67.26-5.76Q68.94-7.08 68.94-8.54L68.94-8.54Q68.8-10.38 66.92-11.43L66.92-11.43Q65.23-12.4 62.94-12.4L62.94-12.4Q61.15-12.4 60.15-11.66ZM104.07-4.98L104.07-4.98 106.12-5.37Q106.98-5.37 107.2-4.22L107.2-4.22 107.54-2.47Q107.56-2.34 107.56-1.94 107.56-1.54 107.26-1.07 106.95-0.61 106.44-0.29L106.44-0.29Q105.32 0.42 103.58 0.42L103.58 0.42Q100.14 0.42 97.85-2.93L97.85-2.93Q97.43-3.49 96.92-4.39L96.92-4.39 93.55-10.35 92.08-8.35Q89.08-4.13 88.47-1.59L88.47-1.59Q88.3-0.93 88-0.46 87.69 0 86.93 0L86.93 0 84.98 0Q84.44 0 84.06-0.45 83.69-0.9 83.69-1.59L83.69-1.59 83.69-41.75Q83.69-42.41 84.06-42.85 84.44-43.29 84.98-43.29L84.98-43.29 88.35-43.29Q88.91-43.29 89.28-42.85 89.64-42.41 89.64-41.75L89.64-41.75 89.72-21.17Q89.72-18.48 89.29-14.94 88.86-11.4 88.74-10.3L88.74-10.3 88.74-10.21Q88.74-10.01 88.84-10.01L88.84-10.01Q89.06-10.01 89.42-10.64L89.42-10.64Q94.28-19.46 101.61-27.47L101.61-27.47Q102.31-28.22 102.92-28.22L102.92-28.22Q103.85-28.22 104.58-27.44L104.58-27.44 105.68-26.22Q106.49-25.24 106.49-24.78L106.49-24.78Q106.54-23.95 105.85-23.32L105.85-23.32 101.46-18.99Q99.21-16.7 97.19-14.18L97.19-14.18 99.02-11.04Q102.49-4.98 104.07-4.98ZM115.72-32.25L115.72-32.25Q114.06-32.25 112.88-33.4L112.88-33.4Q111.71-34.52 111.71-36.23L111.71-36.23Q111.71-37.89 112.88-39.06L112.88-39.06Q114.01-40.19 115.72-40.19L115.72-40.19Q118.33-40.19 119.38-37.79L119.38-37.79Q119.69-37.08 119.69-36.23L119.69-36.23Q119.69-34.52 118.52-33.4L118.52-33.4Q117.35-32.25 115.72-32.25ZM118.57-25.93L118.57-6.71Q118.57-4.98 119.72-4.98L119.72-4.98Q120.11-4.98 120.6-5.2L120.6-5.2Q121.55-5.62 121.89-5.62L121.89-5.62Q122.4-5.62 122.72-4.91L122.72-4.91 123.48-3.2Q123.67-2.78 123.67-2.42L123.67-2.42Q123.67-1.37 121.87-0.46L121.87-0.46Q120.16 0.42 118.49 0.42 116.81 0.42 115.81 0.05 114.81-0.32 114.1-1.17L114.1-1.17Q112.69-2.93 112.69-6.88L112.69-6.88 112.69-25.93Q112.69-26.61 113.08-27.08 113.47-27.54 114.01-27.54L114.01-27.54 117.28-27.54Q117.84-27.54 118.21-27.08 118.57-26.61 118.57-25.93L118.57-25.93ZM129.41-25.78L129.41-25.78Q129.41-27.54 131.09-27.54L131.09-27.54 132.44-27.54Q133.8-27.54 134.29-26.51L134.29-26.51Q134.98-25.05 135.46-22.66L135.46-22.66Q137.66-26.66 142.01-27.78L142.01-27.78Q143.37-28.15 145.41-28.15 147.45-28.15 149.18-27.28 150.92-26.42 151.92-24.9L151.92-24.9Q153.77-22.14 153.77-16.77L153.77-16.77 153.77-1.61Q153.77-0.93 153.33-0.46 152.9 0 152.04 0L152.04 0 149.65 0Q148.72 0 148.28-0.46 147.84-0.93 147.84-1.61L147.84-1.61 147.84-16.8Q147.84-23.05 143.25-23.05L143.25-23.05Q140.57-23.05 138.34-20.8L138.34-20.8Q135.98-18.38 135.98-15.19L135.98-15.19 135.98-1.61Q135.98-0.93 135.56-0.46 135.15 0 134.29 0L134.29 0 131.78 0Q130.92 0 130.48-0.46 130.04-0.93 130.04-1.61L130.04-1.61 130.04-16.6Q130.04-21.51 129.73-23.45 129.41-25.39 129.41-25.78ZM169.42-2.61L169.42-2.61Q171.72-3.74 174.29-3.74 176.87-3.74 178.88-3.26 180.9-2.78 182.51-1.76L182.51-1.76Q186.12 0.54 186.12 4.66L186.12 4.66Q186.12 8.96 182.02 11.57L182.02 11.57Q178.38 13.87 173.28 13.87L173.28 13.87Q168.08 13.87 164.61 11.62L164.61 11.62Q160.88 9.18 160.88 4.98L160.88 4.98Q160.88-0.12 166.27-4.88L166.27-4.88Q168.37-6.71 170.91-8.18L170.91-8.18Q166.93-8.54 164.12-10.99L164.12-10.99Q160.97-13.75 160.97-17.85L160.97-17.85Q160.97-22.56 164.51-25.49L164.51-25.49Q167.76-28.15 172.25-28.15L172.25-28.15Q177.09-28.15 179.85-25.54L179.85-25.54Q180.7-24.73 181.21-23.71L181.21-23.71Q181.21-25.95 180.64-28.36 180.07-30.76 180.07-31.23 180.07-31.69 180.25-31.97 180.43-32.25 180.68-32.4L180.68-32.4Q181.04-32.62 181.51-32.62L181.51-32.62 183.61-32.62Q185.63-32.62 185.63-26.98L185.63-26.98Q185.63-22.46 183.83-18.65L183.83-18.65Q183.87-18.12 183.87-17.24 183.87-16.36 183.48-15.19 183.09-14.01 182.45-13 181.8-11.99 180.96-11.13 180.11-10.28 179.17-9.55 178.23-8.81 177.28-8.2L177.28-8.2Q171.94-4.81 170.89-3.97 169.84-3.13 169.42-2.61ZM168.3-13.95Q169.13-13.23 170.24-12.85 171.35-12.48 172.61-12.48 173.86-12.48 174.91-12.85 175.96-13.23 176.77-13.96L176.77-13.96Q178.48-15.5 178.48-17.92L178.48-17.92Q178.48-20.39 176.57-21.8L176.57-21.8Q174.89-23.05 172.42-23.05L172.42-23.05Q168.52-23.05 167.03-20.14L167.03-20.14Q166.54-19.19 166.54-17.93 166.54-16.67 167-15.67 167.47-14.67 168.3-13.95ZM167.13 1.9L167.13 1.9Q166.22 2.93 166.22 4.17 166.22 5.42 166.83 6.3 167.44 7.18 168.44 7.76L168.44 7.76Q170.37 8.86 173.28 8.86L173.28 8.86Q177.87 8.86 179.68 6.59L179.68 6.59Q180.26 5.83 180.26 4.69 180.26 3.54 179.54 2.73 178.82 1.93 177.75 1.49L177.75 1.49Q175.96 0.76 173.11 0.76L173.11 0.76Q168.71 0.76 167.13 1.9ZM222.59-27.54L225.4-27.54Q226.96-27.54 226.96-26L226.96-26Q226.96-24.22 225.1-18.12L225.1-18.12 223.59-13.45Q218.24 1.88 210.33 11.79L210.33 11.79 209.85 12.4Q208.72 13.84 207.55 13.84L207.55 13.84Q206.31 13.84 204.67 12.11L204.67 12.11Q204.21 11.62 204.21 10.99L204.21 10.99Q204.21 9.96 205.3 8.83 206.4 7.69 207.33 6.56 208.26 5.42 209.09 4.27L209.09 4.27Q210.6 2.2 211.82-0.1L211.82-0.1Q208.01-10.38 207.21-12.4L207.21-12.4 204.55-19.02 202.67-23.29Q201.62-25.73 201.62-26.26 201.62-26.78 202.07-27.16 202.52-27.54 203.35-27.54L203.35-27.54 206.43-27.54Q207.5-27.54 208.09-26.32L208.09-26.32Q208.53-25.42 209.28-23.34L209.28-23.34Q210.82-18.85 211.53-16.67L211.53-16.67 213.51-10.21Q213.8-9.23 213.95-8.64L213.95-8.64 214.17-7.76Q214.24-7.47 214.34-7.03L214.34-7.03 214.56-6.1Q214.68-5.62 214.83-5.62 214.97-5.62 215.16-5.91 215.34-6.2 215.53-6.67L215.53-6.67 215.95-7.69Q218.49-14.21 220.76-25.95L220.76-25.95Q221.05-27.54 222.59-27.54L222.59-27.54ZM231.91-13.87L231.91-13.87Q231.91-17.04 232.98-19.69 234.04-22.34 235.89-24.22L235.89-24.22Q239.77-28.15 245.68-28.15L245.68-28.15Q252.3-28.15 255.94-24.22L255.94-24.22Q259.45-20.43 259.45-13.82L259.45-13.82Q259.45-7.42 255.47-3.37L255.47-3.37Q251.59 0.61 245.68 0.61L245.68 0.61Q239.46 0.61 235.67-3.47L235.67-3.47Q231.91-7.45 231.91-13.87ZM239.76-20.08Q238.85-18.73 238.43-17 238.02-15.28 238.02-13.51 238.02-11.74 238.49-10.12 238.97-8.5 239.92-7.23L239.92-7.23Q242.02-4.44 245.78-4.44L245.78-4.44Q249.61-4.44 251.59-7.18L251.59-7.18Q253.35-9.57 253.35-13.7L253.35-13.7Q253.35-19.87 249.3-22.22L249.3-22.22Q247.81-23.07 245.7-23.07 243.58-23.07 242.13-22.25 240.68-21.44 239.76-20.08ZM291.51-1.66L291.51-1.66Q291.51 0 289.99 0L289.99 0 288.89 0Q287.43 0 286.96-1.17L286.96-1.17Q286.45-2.51 285.87-4.91L285.87-4.91Q284.84-2.34 282.39-0.87 279.93 0.61 276.27 0.61L276.27 0.61Q271.49 0.61 269.22-2.38 266.95-5.37 266.95-11.21L266.95-11.21 266.95-25.93Q266.95-26.61 267.37-27.08 267.8-27.54 268.58-27.54L268.58-27.54 271.27-27.54Q272.88-27.54 272.88-25.93L272.88-25.93 272.88-11.47Q272.88-5.64 275.59-4.74L275.59-4.74Q276.47-4.44 277.68-4.44 278.88-4.44 280.17-5 281.45-5.57 282.47-6.49L282.47-6.49Q284.77-8.62 284.77-11.35L284.77-11.35 284.77-25.93Q284.77-26.61 285.18-27.08 285.6-27.54 286.5-27.54L286.5-27.54 289.06-27.54Q289.92-27.54 290.31-27.08 290.7-26.61 290.7-25.93L290.7-25.93 290.7-10.67Q290.7-5.52 291.43-2.37L291.43-2.37Q291.51-2.1 291.51-1.66ZM320.29-4.39L320.29-4.39Q324.97-4.39 324.97-7.54L324.97-7.54Q324.97-9.28 322.31-10.47L322.31-10.47Q321.19-10.99 319.86-11.43 318.53-11.87 317.31-12.48 316.09-13.09 315.02-13.81 313.96-14.53 313.18-15.45L313.18-15.45Q311.57-17.41 311.57-20.41L311.57-20.41Q311.57-24.07 314.62-26.22L314.62-26.22Q317.33-28.15 321.29-28.15L321.29-28.15Q325.53-28.15 328.39-26.49L328.39-26.49Q329.37-25.9 329.37-25.15L329.37-25.15Q329.37-24.07 328.79-22.79 328.22-21.51 327.45-21.51 326.68-21.51 326.06-21.83 325.44-22.14 324.94-22.38 324.44-22.61 323.87-22.75L323.87-22.75Q322.65-23.12 321.62-23.12 320.58-23.12 319.94-22.97 319.31-22.83 318.8-22.51L318.8-22.51Q317.55-21.75 317.55-20.65 317.55-19.56 318.05-18.97 318.55-18.38 319.43-17.9 320.31-17.41 321.53-16.92L321.53-16.92 324.17-15.82Q327.37-14.43 328.49-13.31L328.49-13.31Q330.69-11.06 330.69-8.11L330.69-8.11Q330.69-4.39 328.15-2L328.15-2Q325.34 0.61 320.16 0.61L320.16 0.61Q314.91 0.61 312.28-1.42L312.28-1.42Q310.98-2.39 310.98-3.17 310.98-3.96 311.26-4.58 311.54-5.2 312-6.04 312.45-6.88 313.22-6.88 313.99-6.88 314.85-6.19 315.72-5.49 317.23-4.94 318.75-4.39 320.29-4.39ZM352.68-28.15L352.68-28.15Q358.83-28.15 360.47-22.66L360.47-22.66Q362.91-26.59 366.94-27.78L366.94-27.78Q368.3-28.17 370.38-28.17 372.46-28.17 374.4-27.15 376.34-26.12 377.28-24.48 378.22-22.83 378.47-20.85 378.73-18.87 378.73-16.6L378.73-16.6 378.73-1.61Q378.73-0.93 378.29-0.46 377.85 0 377 0L377 0 374.6 0Q373.68 0 373.24-0.46 372.8-0.93 372.8-1.61L372.8-1.61 372.8-16.82Q372.8-19.97 371.71-21.51 370.62-23.05 368.28-23.05L368.28-23.05Q365.62-23.05 363.62-20.7L363.62-20.7Q361.47-18.26 361.47-14.65L361.47-14.65 361.47-1.61Q361.47-0.93 361.03-0.46 360.59 0 359.74 0L359.74 0 357.34 0Q356.42 0 355.98-0.46 355.54-0.93 355.54-1.61L355.54-1.61 355.54-16.82Q355.54-19.97 354.45-21.51 353.36-23.05 351.02-23.05L351.02-23.05Q348.36-23.05 346.33-20.7L346.33-20.7Q344.21-18.26 344.21-14.65L344.21-14.65 344.21-1.61Q344.21-0.93 343.79-0.46 343.38 0 342.52 0L342.52 0 340.01 0Q339.15 0 338.72-0.46 338.28-0.93 338.28-1.61L338.28-1.61 338.28-16.6Q338.28-21.51 337.96-23.45 337.64-25.39 337.64-25.78L337.64-25.78Q337.64-27.54 339.33-27.54L339.33-27.54 340.67-27.54Q342.04-27.54 342.52-26.51L342.52-26.51Q343.11-25.27 343.65-22.66L343.65-22.66Q345.77-26.49 349.8-27.73L349.8-27.73Q351.17-28.15 352.68-28.15ZM390.49-32.25L390.49-32.25Q388.83-32.25 387.66-33.4L387.66-33.4Q386.49-34.52 386.49-36.23L386.49-36.23Q386.49-37.89 387.66-39.06L387.66-39.06Q388.79-40.19 390.49-40.19L390.49-40.19Q393.11-40.19 394.16-37.79L394.16-37.79Q394.47-37.08 394.47-36.23L394.47-36.23Q394.47-34.52 393.3-33.4L393.3-33.4Q392.13-32.25 390.49-32.25ZM393.35-25.93L393.35-6.71Q393.35-4.98 394.5-4.98L394.5-4.98Q394.89-4.98 395.38-5.2L395.38-5.2Q396.33-5.62 396.67-5.62L396.67-5.62Q397.18-5.62 397.5-4.91L397.5-4.91 398.26-3.2Q398.45-2.78 398.45-2.42L398.45-2.42Q398.45-1.37 396.65-0.46L396.65-0.46Q394.94 0.42 393.27 0.42 391.59 0.42 390.59 0.05 389.59-0.32 388.88-1.17L388.88-1.17Q387.47-2.93 387.47-6.88L387.47-6.88 387.47-25.93Q387.47-26.61 387.86-27.08 388.25-27.54 388.79-27.54L388.79-27.54 392.06-27.54Q392.62-27.54 392.99-27.08 393.35-26.61 393.35-25.93L393.35-25.93ZM410.15-41.7L410.15-6.71Q410.15-4.98 411.37-4.98L411.37-4.98Q411.76-4.98 412.37-5.2L412.37-5.2Q413.49-5.62 413.73-5.62L413.73-5.62Q414.3-5.62 414.61-4.91L414.61-4.91 415.37-3.17Q415.52-2.81 415.52-2.49L415.52-2.49Q415.52-1.93 414.59-1.12L414.59-1.12Q412.73 0.42 409.73 0.42L409.73 0.42Q404.26 0.42 404.26-6.88L404.26-6.88 404.26-41.7Q404.26-42.36 404.65-42.82 405.04-43.29 405.58-43.29L405.58-43.29 408.85-43.29Q409.41-43.29 409.78-42.82 410.15-42.36 410.15-41.7L410.15-41.7ZM424.96-12.43L424.96-12.43 424.94-11.96Q424.94-8.62 427.06-6.59L427.06-6.59Q429.28-4.44 433.09-4.44L433.09-4.44Q436.56-4.44 439.54-6.52L439.54-6.52Q440.1-6.91 440.54-6.91L440.54-6.91Q441.44-6.91 441.91-6.01L441.91-6.01 442.57-4.64Q442.78-4.15 442.78-3.59 442.78-3.03 442.28-2.43 441.78-1.83 440.98-1.34 440.17-0.85 439.11-0.49 438.05-0.12 436.93 0.12L436.93 0.12Q434.68 0.61 432.24 0.61 429.8 0.61 427.32-0.32 424.84-1.25 423.03-3.03L423.03-3.03Q419.15-6.81 419.15-13.26L419.15-13.26Q419.15-24.56 427.11-27.32L427.11-27.32Q429.6-28.17 432.23-28.17 434.85-28.17 436.69-27.61 438.54-27.05 439.88-25.95L439.88-25.95Q442.71-23.63 442.71-19.48L442.71-19.48Q442.71-15.41 439.39-13.26L439.39-13.26Q436.49-11.38 431.73-11.38L431.73-11.38Q428.8-11.38 424.96-12.43ZM436.97-19.56L436.97-19.56Q436.97-23.05 432.29-23.05L432.29-23.05Q427.82-23.05 426.04-19.78L426.04-19.78Q425.4-18.63 425.21-16.94L425.21-16.94Q427.31-15.89 430.55-15.89L430.55-15.89Q436.97-15.89 436.97-19.56Z" opacity="1" transform="matrix(1,0,0,1,0,0)" fill="#000000" class="slogan-text-1" data-fill-palette-color="secondary" id="text-1"></path></svg></g></svg></g></svg></g></svg></g><g transform="matrix(1,0,0,1,450.71252575327924,0)"><svg viewBox="0 0 244.43135999999998 190.86455378488887" height="190.86455378488887" width="244.43135999999998"><g><svg xmlns:dc="http://purl.org/dc/elements/1.1/" xmlns:cc="http://creativecommons.org/ns#" xmlns:rdf="http://www.w3.org/1999/02/22-rdf-syntax-ns#" xmlns:svg="http://www.w3.org/2000/svg" xmlns:sodipodi="http://sodipodi.sourceforge.net/DTD/sodipodi-0.dtd" xmlns:inkscape="http://www.inkscape.org/namespaces/inkscape" xmlns="http://www.w3.org/2000/svg" xmlns:xlink="http://www.w3.org/1999/xlink" version="1.1" x="8" y="0" viewBox="5 12.4 90 75.199" enable-background="new 0 0 100 100" xml:space="preserve" height="190.86455378488887" width="228.43135999999998" class="icon-icon-0" data-fill-palette-color="accent" id="icon-0"><path d="M12.031 12.4C8.188 12.4 5 15.589 5 19.432V61.9C5 65.743 8.188 68.931 12.031 68.931H22.086L22.297 80.673 22.438 87.599 27.43 82.783 41.844 68.931H87.969C91.813 68.931 95 65.743 95 61.9V19.432C95 15.589 91.812 12.401 87.969 12.401zM12.031 16.115H87.969C88.561 16.115 91.36 16.851 91.36 19.701V62.17C91.655 64.561 88.561 65.591 87.969 65.591H39.418L38.539 66.435 25.244 80.021 25.216 68.535 25.181 65.582H22.193L12.032 65.591C8.606 65.591 8.901 62.018 8.901 61.426V18.957C8.9 18.365 10.078 15.526 12.031 16.115" fill="#000000" data-fill-palette-color="accent"></path><g fill="#bfbf2f" data-fill-palette-color="accent"><g fill="#bfbf2f" data-fill-palette-color="accent"><path d="M33.498 29.801C33.498 26.981 35.538 24.761 37.937 24.761 40.457 24.761 42.377 26.741 42.377 29.801 42.377 32.681 40.637 34.721 37.877 34.721 35.417 34.721 33.498 32.681 33.498 29.801M33.498 49.42C33.498 46.66 35.538 44.441 37.937 44.441 40.457 44.441 42.377 46.421 42.377 49.42 42.377 52.36 40.637 54.4 37.877 54.4 35.417 54.4 33.498 52.36 33.498 49.42" fill="#000000" data-fill-palette-color="accent"></path></g><g fill="#bfbf2f" data-fill-palette-color="accent"><path d="M50.212 59.681C54.82 54.64 59.908 45.231 59.908 33.854 59.908 29.054 59.668 24.974 57.748 20.701H62.213C63.942 24.301 64.709 28.909 64.709 33.854 64.709 45.903 59.092 55.264 55.108 59.681z" fill="#000000" data-fill-palette-color="accent"></path><path d="M55.553 60.681H47.943L49.474 59.006C54.036 54.017 58.909 44.79 58.909 33.854 58.909 29.569 58.751 25.37 56.837 21.111L56.203 19.701H62.843L63.115 20.268C64.812 23.803 65.71 28.501 65.71 33.853 65.71 45.33 60.617 55.065 55.852 60.35zM52.37 58.681H54.659C59.089 53.603 63.709 44.528 63.709 33.854 63.709 29.086 62.972 24.902 61.571 21.701H59.238C60.769 25.817 60.908 29.804 60.908 33.854 60.908 44.234 56.724 53.165 52.37 58.681" fill="#000000" data-fill-palette-color="accent"></path></g></g></svg></g></svg></g></svg></g><defs></defs></svg><rect width="395.52" height="108.59729886165246" fill="none" stroke="none" visibility="hidden"></rect></g></svg></g></svg>