<svg xmlns="http://www.w3.org/2000/svg" version="1.1" xmlns:xlink="http://www.w3.org/1999/xlink" xmlns:svgjs="http://svgjs.dev/svgjs" width="1500" height="1430" viewBox="0 0 1500 1430"><g transform="matrix(1,0,0,1,0.1914993375251015,0.5789473684210407)"><svg viewBox="0 0 259 247" data-background-color="#ffffff" preserveAspectRatio="xMidYMid meet" height="1430" width="1500" xmlns="http://www.w3.org/2000/svg" xmlns:xlink="http://www.w3.org/1999/xlink"><g id="tight-bounds" transform="matrix(1,0,0,1,-0.03306555227933927,-0.09999999999999432)"><svg viewBox="0 0 259.0661311045587 247.2" height="247.2" width="259.0661311045587"><g><svg viewBox="0 0 395.52 377.4038064456181" height="247.2" width="259.0661311045587"><g transform="matrix(1,0,0,1,0,230.69677327827208)"><svg viewBox="0 0 395.52 146.70703316734605" height="146.70703316734605" width="395.52"><g id="textblocktransform"><svg viewBox="0 0 395.52 146.70703316734605" height="146.70703316734605" width="395.52" id="textblock"><g><svg viewBox="0 0 395.52 118.38413663820037" height="118.38413663820037" width="395.52"><g transform="matrix(1,0,0,1,0,0)"><svg width="395.52" viewBox="1.71 -34.72 117.2 35.09" height="118.38413663820037" data-palette-color="#3d3839"><g class="wordmark-text-0" data-fill-palette-color="primary" id="text-0"><path d="M17.53-21.46L16.58-19.92Q16.28-19.38 15.7-19.38L15.7-19.38Q15.33-19.38 14.9-19.65 14.48-19.92 13.88-20.23 13.28-20.53 12.46-20.8 11.65-21.07 10.52-21.07L10.52-21.07Q9.57-21.07 8.81-20.8 8.06-20.53 7.52-20.07 6.98-19.6 6.69-18.98 6.4-18.36 6.4-17.65L6.4-17.65Q6.4-16.72 6.88-16.11 7.37-15.5 8.18-15.06 8.98-14.62 10.02-14.27 11.06-13.92 12.13-13.55 13.21-13.18 14.25-12.7 15.28-12.21 16.09-11.5 16.89-10.79 17.38-9.78 17.87-8.76 17.87-7.32L17.87-7.32Q17.87-5.66 17.31-4.26 16.75-2.86 15.66-1.83 14.58-0.81 12.98-0.22 11.38 0.37 9.3 0.37L9.3 0.37Q6.93 0.37 4.99-0.44 3.05-1.25 1.71-2.54L1.71-2.54 2.71-4.15Q2.91-4.47 3.17-4.64 3.44-4.81 3.86-4.81L3.86-4.81Q4.3-4.81 4.74-4.48 5.18-4.15 5.8-3.75 6.42-3.34 7.3-3.02 8.18-2.69 9.5-2.69L9.5-2.69Q10.62-2.69 11.44-3 12.26-3.32 12.79-3.85 13.33-4.37 13.6-5.08 13.87-5.79 13.87-6.57L13.87-6.57Q13.87-7.54 13.37-8.19 12.87-8.84 12.06-9.29 11.25-9.74 10.22-10.08 9.18-10.42 8.09-10.8 7.01-11.18 5.97-11.66 4.93-12.13 4.13-12.88 3.32-13.62 2.82-14.7 2.32-15.77 2.32-17.31L2.32-17.31Q2.32-18.7 2.86-19.96 3.39-21.22 4.42-22.17 5.44-23.12 6.96-23.68 8.47-24.24 10.42-24.24L10.42-24.24Q12.65-24.24 14.45-23.51 16.26-22.78 17.53-21.46L17.53-21.46ZM27.44 0L23.14 0 23.14-23.88 25.68-23.88Q26.17-23.88 26.45-23.67 26.73-23.46 26.78-23L26.78-23 27.15-20.56Q27.83-21.36 28.57-22.03 29.32-22.71 30.17-23.21 31.03-23.71 32-23.97 32.98-24.24 34.08-24.24L34.08-24.24Q36.55-24.24 38.1-22.9 39.65-21.56 40.31-19.29L40.31-19.29Q40.82-20.61 41.66-21.53 42.5-22.46 43.53-23.07 44.55-23.68 45.73-23.96 46.9-24.24 48.12-24.24L48.12-24.24Q52.02-24.24 54.16-21.9 56.3-19.56 56.3-15.21L56.3-15.21 56.3 0 52 0 52-15.21Q52-17.99 50.73-19.42 49.46-20.85 47.09-20.85L47.09-20.85Q46.02-20.85 45.07-20.5 44.11-20.14 43.39-19.42 42.67-18.7 42.25-17.65 41.82-16.6 41.82-15.21L41.82-15.21 41.82 0 37.52 0 37.52-15.21Q37.52-18.07 36.34-19.46 35.15-20.85 32.86-20.85L32.86-20.85Q31.3-20.85 29.93-20.03 28.56-19.21 27.44-17.77L27.44-17.77 27.44 0ZM63.08-34.72L67.38-34.72 67.38 0 63.08 0 63.08-34.72ZM84.03-24.24L84.03-24.24Q86.17-24.24 88.01-23.54 89.84-22.83 91.18-21.46 92.52-20.09 93.28-18.12 94.04-16.14 94.04-13.57L94.04-13.57Q94.04-12.57 93.82-12.24 93.6-11.91 93.01-11.91L93.01-11.91 77.04-11.91Q77.09-9.67 77.65-8 78.22-6.32 79.2-5.22 80.19-4.13 81.56-3.58 82.93-3.03 84.61-3.03L84.61-3.03Q86.17-3.03 87.32-3.38 88.47-3.74 89.29-4.17 90.1-4.61 90.67-4.97 91.23-5.32 91.64-5.32L91.64-5.32Q91.91-5.32 92.11-5.21 92.3-5.1 92.45-4.91L92.45-4.91 93.67-3.34Q92.86-2.39 91.78-1.7 90.69-1 89.45-0.55 88.2-0.1 86.87 0.12 85.54 0.34 84.25 0.34L84.25 0.34Q81.76 0.34 79.66-0.49 77.56-1.32 76.03-2.94 74.5-4.57 73.65-6.95 72.8-9.33 72.8-12.43L72.8-12.43Q72.8-14.92 73.56-17.08 74.33-19.24 75.79-20.84 77.24-22.44 79.33-23.34 81.41-24.24 84.03-24.24ZM84.1-21.12L84.1-21.12Q81.1-21.12 79.35-19.36 77.6-17.6 77.17-14.55L77.17-14.55 90.18-14.55Q90.18-15.99 89.76-17.2 89.35-18.41 88.57-19.27 87.79-20.14 86.65-20.63 85.51-21.12 84.1-21.12ZM108.9-24.24L108.9-24.24Q111.05-24.24 112.88-23.54 114.71-22.83 116.05-21.46 117.4-20.09 118.15-18.12 118.91-16.14 118.91-13.57L118.91-13.57Q118.91-12.57 118.69-12.24 118.47-11.91 117.89-11.91L117.89-11.91 101.92-11.91Q101.97-9.67 102.53-8 103.09-6.32 104.08-5.22 105.07-4.13 106.44-3.58 107.8-3.03 109.49-3.03L109.49-3.03Q111.05-3.03 112.2-3.38 113.34-3.74 114.16-4.17 114.98-4.61 115.54-4.97 116.1-5.32 116.52-5.32L116.52-5.32Q116.79-5.32 116.98-5.21 117.18-5.1 117.32-4.91L117.32-4.91 118.54-3.34Q117.74-2.39 116.65-1.7 115.57-1 114.32-0.55 113.08-0.1 111.75 0.12 110.41 0.34 109.12 0.34L109.12 0.34Q106.63 0.34 104.53-0.49 102.43-1.32 100.91-2.94 99.38-4.57 98.53-6.95 97.67-9.33 97.67-12.43L97.67-12.43Q97.67-14.92 98.44-17.08 99.21-19.24 100.66-20.84 102.11-22.44 104.2-23.34 106.29-24.24 108.9-24.24ZM108.97-21.12L108.97-21.12Q105.97-21.12 104.23-19.36 102.48-17.6 102.04-14.55L102.04-14.55 115.05-14.55Q115.05-15.99 114.64-17.2 114.22-18.41 113.44-19.27 112.66-20.14 111.53-20.63 110.39-21.12 108.97-21.12Z" fill="#3d3839" data-fill-palette-color="primary"></path></g></svg></g></svg></g><g transform="matrix(1,0,0,1,195.7824,146.33179007920018)"><svg viewBox="0 0 3.9552 0.3752430881458967" height="0.3752430881458967" width="3.9552"><g transform="matrix(1,0,0,1,0,0)"><svg width="3.9552" viewBox="2.83 -43.29 602.37 57.16" height="0.3752430881458967" data-palette-color="#ffc604"><path d="M12.13-4.39L12.13-4.39Q16.82-4.39 16.82-7.54L16.82-7.54Q16.82-9.28 14.16-10.47L14.16-10.47Q13.04-10.99 11.71-11.43 10.38-11.87 9.16-12.48 7.93-13.09 6.87-13.81 5.81-14.53 5.03-15.45L5.03-15.45Q3.42-17.41 3.42-20.41L3.42-20.41Q3.42-24.07 6.47-26.22L6.47-26.22Q9.18-28.15 13.13-28.15L13.13-28.15Q17.38-28.15 20.24-26.49L20.24-26.49Q21.22-25.9 21.22-25.15L21.22-25.15Q21.22-24.07 20.64-22.79 20.07-21.51 19.3-21.51 18.53-21.51 17.91-21.83 17.29-22.14 16.78-22.38 16.28-22.61 15.72-22.75L15.72-22.75Q14.5-23.12 13.46-23.12 12.43-23.12 11.79-22.97 11.16-22.83 10.64-22.51L10.64-22.51Q9.4-21.75 9.4-20.65 9.4-19.56 9.9-18.97 10.4-18.38 11.28-17.9 12.16-17.41 13.38-16.92L13.38-16.92 16.02-15.82Q19.21-14.43 20.34-13.31L20.34-13.31Q22.53-11.06 22.53-8.11L22.53-8.11Q22.53-4.39 20-2L20-2Q17.19 0.61 12.01 0.61L12.01 0.61Q6.76 0.61 4.13-1.42L4.13-1.42Q2.83-2.39 2.83-3.17 2.83-3.96 3.11-4.58 3.39-5.2 3.85-6.04 4.3-6.88 5.07-6.88 5.83-6.88 6.7-6.19 7.57-5.49 9.08-4.94 10.6-4.39 12.13-4.39ZM44.53-28.15L44.53-28.15Q50.68-28.15 52.32-22.66L52.32-22.66Q54.76-26.59 58.79-27.78L58.79-27.78Q60.15-28.17 62.23-28.17 64.3-28.17 66.25-27.15 68.19-26.12 69.13-24.48 70.07-22.83 70.32-20.85 70.58-18.87 70.58-16.6L70.58-16.6 70.58-1.61Q70.58-0.93 70.14-0.46 69.7 0 68.85 0L68.85 0 66.45 0Q65.52 0 65.09-0.46 64.65-0.93 64.65-1.61L64.65-1.61 64.65-16.82Q64.65-19.97 63.56-21.51 62.47-23.05 60.13-23.05L60.13-23.05Q57.47-23.05 55.47-20.7L55.47-20.7Q53.32-18.26 53.32-14.65L53.32-14.65 53.32-1.61Q53.32-0.93 52.88-0.46 52.44 0 51.58 0L51.58 0 49.19 0Q48.26 0 47.82-0.46 47.39-0.93 47.39-1.61L47.39-1.61 47.39-16.82Q47.39-19.97 46.3-21.51 45.21-23.05 42.87-23.05L42.87-23.05Q40.21-23.05 38.18-20.7L38.18-20.7Q36.06-18.26 36.06-14.65L36.06-14.65 36.06-1.61Q36.06-0.93 35.64-0.46 35.23 0 34.37 0L34.37 0 31.86 0Q31 0 30.56-0.46 30.12-0.93 30.12-1.61L30.12-1.61 30.12-16.6Q30.12-21.51 29.81-23.45 29.49-25.39 29.49-25.78L29.49-25.78Q29.49-27.54 31.17-27.54L31.17-27.54 32.52-27.54Q33.88-27.54 34.37-26.51L34.37-26.51Q34.96-25.27 35.5-22.66L35.5-22.66Q37.62-26.49 41.65-27.73L41.65-27.73Q43.02-28.15 44.53-28.15ZM85.32-41.7L85.32-6.71Q85.32-4.98 86.54-4.98L86.54-4.98Q86.93-4.98 87.54-5.2L87.54-5.2Q88.67-5.62 88.91-5.62L88.91-5.62Q89.47-5.62 89.79-4.91L89.79-4.91 90.55-3.17Q90.69-2.81 90.69-2.49L90.69-2.49Q90.69-1.93 89.77-1.12L89.77-1.12Q87.91 0.42 84.91 0.42L84.91 0.42Q79.44 0.42 79.44-6.88L79.44-6.88 79.44-41.7Q79.44-42.36 79.83-42.82 80.22-43.29 80.76-43.29L80.76-43.29 84.03-43.29Q84.59-43.29 84.96-42.82 85.32-42.36 85.32-41.7L85.32-41.7ZM100.14-12.43L100.14-12.43 100.11-11.96Q100.11-8.62 102.24-6.59L102.24-6.59Q104.46-4.44 108.27-4.44L108.27-4.44Q111.74-4.44 114.71-6.52L114.71-6.52Q115.28-6.91 115.72-6.91L115.72-6.91Q116.62-6.91 117.08-6.01L117.08-6.01 117.74-4.64Q117.96-4.15 117.96-3.59 117.96-3.03 117.46-2.43 116.96-1.83 116.15-1.34 115.35-0.85 114.29-0.49 113.22-0.12 112.1 0.12L112.1 0.12Q109.86 0.61 107.41 0.61 104.97 0.61 102.49-0.32 100.02-1.25 98.21-3.03L98.21-3.03Q94.33-6.81 94.33-13.26L94.33-13.26Q94.33-24.56 102.29-27.32L102.29-27.32Q104.78-28.17 107.4-28.17 110.03-28.17 111.87-27.61 113.71-27.05 115.06-25.95L115.06-25.95Q117.89-23.63 117.89-19.48L117.89-19.48Q117.89-15.41 114.57-13.26L114.57-13.26Q111.66-11.38 106.9-11.38L106.9-11.38Q103.97-11.38 100.14-12.43ZM112.15-19.56L112.15-19.56Q112.15-23.05 107.46-23.05L107.46-23.05Q103-23.05 101.21-19.78L101.21-19.78Q100.58-18.63 100.38-16.94L100.38-16.94Q102.48-15.89 105.73-15.89L105.73-15.89Q112.15-15.89 112.15-19.56ZM129.31-12.43L129.31-12.43 129.29-11.96Q129.29-8.62 131.41-6.59L131.41-6.59Q133.63-4.44 137.44-4.44L137.44-4.44Q140.91-4.44 143.89-6.52L143.89-6.52Q144.45-6.91 144.89-6.91L144.89-6.91Q145.79-6.91 146.25-6.01L146.25-6.01 146.91-4.64Q147.13-4.15 147.13-3.59 147.13-3.03 146.63-2.43 146.13-1.83 145.33-1.34 144.52-0.85 143.46-0.49 142.4-0.12 141.27 0.12L141.27 0.12Q139.03 0.61 136.59 0.61 134.15 0.61 131.67-0.32 129.19-1.25 127.38-3.03L127.38-3.03Q123.5-6.81 123.5-13.26L123.5-13.26Q123.5-24.56 131.46-27.32L131.46-27.32Q133.95-28.17 136.57-28.17 139.2-28.17 141.04-27.61 142.89-27.05 144.23-25.95L144.23-25.95Q147.06-23.63 147.06-19.48L147.06-19.48Q147.06-15.41 143.74-13.26L143.74-13.26Q140.83-11.38 136.07-11.38L136.07-11.38Q133.14-11.38 129.31-12.43ZM141.32-19.56L141.32-19.56Q141.32-23.05 136.64-23.05L136.64-23.05Q132.17-23.05 130.39-19.78L130.39-19.78Q129.75-18.63 129.56-16.94L129.56-16.94Q131.66-15.89 134.9-15.89L134.9-15.89Q141.32-15.89 141.32-19.56ZM181.94-28.15L181.94-28.15Q188.1-28.15 189.73-22.66L189.73-22.66Q192.17-26.59 196.2-27.78L196.2-27.78Q197.57-28.17 199.64-28.17 201.72-28.17 203.66-27.15 205.6-26.12 206.54-24.48 207.48-22.83 207.74-20.85 207.99-18.87 207.99-16.6L207.99-16.6 207.99-1.61Q207.99-0.93 207.55-0.46 207.11 0 206.26 0L206.26 0 203.87 0Q202.94 0 202.5-0.46 202.06-0.93 202.06-1.61L202.06-1.61 202.06-16.82Q202.06-19.97 200.97-21.51 199.89-23.05 197.54-23.05L197.54-23.05Q194.88-23.05 192.88-20.7L192.88-20.7Q190.73-18.26 190.73-14.65L190.73-14.65 190.73-1.61Q190.73-0.93 190.29-0.46 189.85 0 189 0L189 0 186.61 0Q185.68 0 185.24-0.46 184.8-0.93 184.8-1.61L184.8-1.61 184.8-16.82Q184.8-19.97 183.71-21.51 182.63-23.05 180.28-23.05L180.28-23.05Q177.62-23.05 175.6-20.7L175.6-20.7Q173.47-18.26 173.47-14.65L173.47-14.65 173.47-1.61Q173.47-0.93 173.06-0.46 172.64 0 171.79 0L171.79 0 169.27 0Q168.42 0 167.98-0.46 167.54-0.93 167.54-1.61L167.54-1.61 167.54-16.6Q167.54-21.51 167.22-23.45 166.9-25.39 166.9-25.78L166.9-25.78Q166.9-27.54 168.59-27.54L168.59-27.54 169.93-27.54Q171.3-27.54 171.79-26.51L171.79-26.51Q172.37-25.27 172.91-22.66L172.91-22.66Q175.03-26.49 179.06-27.73L179.06-27.73Q180.43-28.15 181.94-28.15ZM238.92-1.29L238.92-1.29Q238.92 0 237.65 0L237.65 0 235.29 0Q234.33 0 234.14-0.38 233.94-0.76 233.92-1.06 233.89-1.37 233.82-1.81L233.82-1.81Q233.67-3 233.41-4.39L233.41-4.39Q231.5-0.9 227.42 0.22L227.42 0.22Q225.98 0.61 224.25 0.61 222.52 0.61 220.78 0.04 219.05-0.54 217.71-1.66L217.71-1.66Q214.68-4.2 214.68-8.33L214.68-8.33Q214.68-12.84 218-15.23L218-15.23Q220.73-17.16 225.03-17.16 229.33-17.16 232.31-14.65L232.31-14.65Q232.38-15.48 232.38-16.72 232.38-17.97 231.89-19.21 231.4-20.46 230.5-21.29L230.5-21.29Q228.64-22.92 225.32-22.92L225.32-22.92Q222.35-22.92 219.27-21.29L219.27-21.29Q218.68-20.97 218.24-20.97L218.24-20.97Q217.59-20.97 216.97-22.27L216.97-22.27Q216.32-23.58 216.32-24.17L216.32-24.17Q216.32-25.24 217.93-26.25L217.93-26.25Q221-28.15 226.15-28.15L226.15-28.15Q230.84-28.15 233.92-25.59L233.92-25.59Q237.56-22.51 237.56-16.89L237.56-16.89Q237.56-14.4 236.75-10.62L236.75-10.62Q238.83-4.71 238.92-1.29ZM222.57-11.66Q221.56-10.91 221.14-10.18 220.71-9.45 220.71-8.46 220.71-7.47 221.06-6.7 221.42-5.93 222.05-5.42L222.05-5.42Q223.4-4.37 225.07-4.37 226.74-4.37 227.81-4.76 228.89-5.15 229.67-5.76L229.67-5.76Q231.35-7.08 231.35-8.54L231.35-8.54Q231.21-10.38 229.33-11.43L229.33-11.43Q227.64-12.4 225.35-12.4L225.35-12.4Q223.57-12.4 222.57-11.66ZM266.48-4.98L266.48-4.98 268.53-5.37Q269.39-5.37 269.61-4.22L269.61-4.22 269.95-2.47Q269.98-2.34 269.98-1.94 269.98-1.54 269.67-1.07 269.36-0.61 268.85-0.29L268.85-0.29Q267.73 0.42 266 0.42L266 0.42Q262.55 0.42 260.26-2.93L260.26-2.93Q259.84-3.49 259.33-4.39L259.33-4.39 255.96-10.35 254.5-8.35Q251.49-4.13 250.88-1.59L250.88-1.59Q250.71-0.93 250.41-0.46 250.1 0 249.35 0L249.35 0 247.39 0Q246.86 0 246.48-0.45 246.1-0.9 246.1-1.59L246.1-1.59 246.1-41.75Q246.1-42.41 246.48-42.85 246.86-43.29 247.39-43.29L247.39-43.29 250.76-43.29Q251.32-43.29 251.69-42.85 252.06-42.41 252.06-41.75L252.06-41.75 252.13-21.17Q252.13-18.48 251.7-14.94 251.27-11.4 251.15-10.3L251.15-10.3 251.15-10.21Q251.15-10.01 251.25-10.01L251.25-10.01Q251.47-10.01 251.84-10.64L251.84-10.64Q256.69-19.46 264.02-27.47L264.02-27.47Q264.73-28.22 265.34-28.22L265.34-28.22Q266.26-28.22 267-27.44L267-27.44 268.1-26.22Q268.9-25.24 268.9-24.78L268.9-24.78Q268.95-23.95 268.27-23.32L268.27-23.32 263.87-18.99Q261.63-16.7 259.6-14.18L259.6-14.18 261.43-11.04Q264.9-4.98 266.48-4.98ZM278.13-32.25L278.13-32.25Q276.47-32.25 275.29-33.4L275.29-33.4Q274.12-34.52 274.12-36.23L274.12-36.23Q274.12-37.89 275.29-39.06L275.29-39.06Q276.42-40.19 278.13-40.19L278.13-40.19Q280.74-40.19 281.79-37.79L281.79-37.79Q282.11-37.08 282.11-36.23L282.11-36.23Q282.11-34.52 280.93-33.4L280.93-33.4Q279.76-32.25 278.13-32.25ZM280.98-25.93L280.98-6.71Q280.98-4.98 282.13-4.98L282.13-4.98Q282.52-4.98 283.01-5.2L283.01-5.2Q283.96-5.62 284.3-5.62L284.3-5.62Q284.82-5.62 285.13-4.91L285.13-4.91 285.89-3.2Q286.09-2.78 286.09-2.42L286.09-2.42Q286.09-1.37 284.28-0.46L284.28-0.46Q282.57 0.42 280.9 0.42 279.23 0.42 278.22 0.05 277.22-0.32 276.52-1.17L276.52-1.17Q275.1-2.93 275.1-6.88L275.1-6.88 275.1-25.93Q275.1-26.61 275.49-27.08 275.88-27.54 276.42-27.54L276.42-27.54 279.69-27.54Q280.25-27.54 280.62-27.08 280.98-26.61 280.98-25.93L280.98-25.93ZM291.82-25.78L291.82-25.78Q291.82-27.54 293.51-27.54L293.51-27.54 294.85-27.54Q296.22-27.54 296.7-26.51L296.7-26.51Q297.39-25.05 297.88-22.66L297.88-22.66Q300.07-26.66 304.42-27.78L304.42-27.78Q305.79-28.15 307.82-28.15 309.86-28.15 311.6-27.28 313.33-26.42 314.33-24.9L314.33-24.9Q316.19-22.14 316.19-16.77L316.19-16.77 316.19-1.61Q316.19-0.93 315.75-0.46 315.31 0 314.45 0L314.45 0 312.06 0Q311.13 0 310.69-0.46 310.25-0.93 310.25-1.61L310.25-1.61 310.25-16.8Q310.25-23.05 305.66-23.05L305.66-23.05Q302.98-23.05 300.76-20.8L300.76-20.8Q298.39-18.38 298.39-15.19L298.39-15.19 298.39-1.61Q298.39-0.93 297.97-0.46 297.56 0 296.7 0L296.7 0 294.19 0Q293.33 0 292.89-0.46 292.46-0.93 292.46-1.61L292.46-1.61 292.46-16.6Q292.46-21.51 292.14-23.45 291.82-25.39 291.82-25.78ZM331.83-2.61L331.83-2.61Q334.13-3.74 336.7-3.74 339.28-3.74 341.29-3.26 343.31-2.78 344.92-1.76L344.92-1.76Q348.53 0.54 348.53 4.66L348.53 4.66Q348.53 8.96 344.43 11.57L344.43 11.57Q340.79 13.87 335.69 13.87L335.69 13.87Q330.49 13.87 327.02 11.62L327.02 11.62Q323.29 9.18 323.29 4.98L323.29 4.98Q323.29-0.12 328.68-4.88L328.68-4.88Q330.78-6.71 333.32-8.18L333.32-8.18Q329.34-8.54 326.54-10.99L326.54-10.99Q323.39-13.75 323.39-17.85L323.39-17.85Q323.39-22.56 326.93-25.49L326.93-25.49Q330.17-28.15 334.66-28.15L334.66-28.15Q339.5-28.15 342.26-25.54L342.26-25.54Q343.11-24.73 343.62-23.71L343.62-23.71Q343.62-25.95 343.05-28.36 342.48-30.76 342.48-31.23 342.48-31.69 342.66-31.97 342.84-32.25 343.09-32.4L343.09-32.4Q343.45-32.62 343.92-32.62L343.92-32.62 346.02-32.62Q348.04-32.62 348.04-26.98L348.04-26.98Q348.04-22.46 346.24-18.65L346.24-18.65Q346.29-18.12 346.29-17.24 346.29-16.36 345.9-15.19 345.5-14.01 344.86-13 344.21-11.99 343.37-11.13 342.53-10.28 341.59-9.55 340.65-8.81 339.69-8.2L339.69-8.2Q334.35-4.81 333.3-3.97 332.25-3.13 331.83-2.61ZM330.71-13.95Q331.54-13.23 332.65-12.85 333.76-12.48 335.02-12.48 336.28-12.48 337.33-12.85 338.38-13.23 339.18-13.96L339.18-13.96Q340.89-15.5 340.89-17.92L340.89-17.92Q340.89-20.39 338.99-21.8L338.99-21.8Q337.3-23.05 334.84-23.05L334.84-23.05Q330.93-23.05 329.44-20.14L329.44-20.14Q328.95-19.19 328.95-17.93 328.95-16.67 329.42-15.67 329.88-14.67 330.71-13.95ZM329.54 1.9L329.54 1.9Q328.63 2.93 328.63 4.17 328.63 5.42 329.24 6.3 329.86 7.18 330.86 7.76L330.86 7.76Q332.79 8.86 335.69 8.86L335.69 8.86Q340.28 8.86 342.09 6.59L342.09 6.59Q342.67 5.83 342.67 4.69 342.67 3.54 341.95 2.73 341.23 1.93 340.16 1.49L340.16 1.49Q338.38 0.76 335.52 0.76L335.52 0.76Q331.12 0.76 329.54 1.9ZM385-27.54L387.81-27.54Q389.37-27.54 389.37-26L389.37-26Q389.37-24.22 387.52-18.12L387.52-18.12 386-13.45Q380.66 1.88 372.75 11.79L372.75 11.79 372.26 12.4Q371.13 13.84 369.96 13.84L369.96 13.84Q368.72 13.84 367.08 12.11L367.08 12.11Q366.62 11.62 366.62 10.99L366.62 10.99Q366.62 9.96 367.72 8.83 368.82 7.69 369.74 6.56 370.67 5.42 371.5 4.27L371.5 4.27Q373.01 2.2 374.24-0.1L374.24-0.1Q370.43-10.38 369.62-12.4L369.62-12.4 366.96-19.02 365.08-23.29Q364.03-25.73 364.03-26.26 364.03-26.78 364.48-27.16 364.93-27.54 365.76-27.54L365.76-27.54 368.84-27.54Q369.91-27.54 370.5-26.32L370.5-26.32Q370.94-25.42 371.7-23.34L371.7-23.34Q373.23-18.85 373.94-16.67L373.94-16.67 375.92-10.21Q376.21-9.23 376.36-8.64L376.36-8.64 376.58-7.76Q376.65-7.47 376.75-7.03L376.75-7.03 376.97-6.1Q377.09-5.62 377.24-5.62 377.38-5.62 377.57-5.91 377.75-6.2 377.95-6.67L377.95-6.67 378.36-7.69Q380.9-14.21 383.17-25.95L383.17-25.95Q383.46-27.54 385-27.54L385-27.54ZM394.33-13.87L394.33-13.87Q394.33-17.04 395.39-19.69 396.45-22.34 398.3-24.22L398.3-24.22Q402.19-28.15 408.09-28.15L408.09-28.15Q414.71-28.15 418.35-24.22L418.35-24.22Q421.86-20.43 421.86-13.82L421.86-13.82Q421.86-7.42 417.88-3.37L417.88-3.37Q414 0.61 408.09 0.61L408.09 0.61Q401.87 0.61 398.09-3.47L398.09-3.47Q394.33-7.45 394.33-13.87ZM402.17-20.08Q401.26-18.73 400.84-17 400.43-15.28 400.43-13.51 400.43-11.74 400.9-10.12 401.38-8.5 402.33-7.23L402.33-7.23Q404.43-4.44 408.19-4.44L408.19-4.44Q412.03-4.44 414-7.18L414-7.18Q415.76-9.57 415.76-13.7L415.76-13.7Q415.76-19.87 411.71-22.22L411.71-22.22Q410.22-23.07 408.11-23.07 406-23.07 404.54-22.25 403.09-21.44 402.17-20.08ZM453.92-1.66L453.92-1.66Q453.92 0 452.4 0L452.4 0 451.31 0Q449.84 0 449.38-1.17L449.38-1.17Q448.86-2.51 448.28-4.91L448.28-4.91Q447.25-2.34 444.8-0.87 442.35 0.61 438.68 0.61L438.68 0.61Q433.9 0.61 431.63-2.38 429.36-5.37 429.36-11.21L429.36-11.21 429.36-25.93Q429.36-26.61 429.78-27.08 430.21-27.54 430.99-27.54L430.99-27.54 433.68-27.54Q435.29-27.54 435.29-25.93L435.29-25.93 435.29-11.47Q435.29-5.64 438-4.74L438-4.74Q438.88-4.44 440.09-4.44 441.3-4.44 442.58-5 443.86-5.57 444.88-6.49L444.88-6.49Q447.18-8.62 447.18-11.35L447.18-11.35 447.18-25.93Q447.18-26.61 447.59-27.08 448.01-27.54 448.91-27.54L448.91-27.54 451.48-27.54Q452.33-27.54 452.72-27.08 453.11-26.61 453.11-25.93L453.11-25.93 453.11-10.67Q453.11-5.52 453.84-2.37L453.84-2.37Q453.92-2.1 453.92-1.66ZM482.7-4.39L482.7-4.39Q487.38-4.39 487.38-7.54L487.38-7.54Q487.38-9.28 484.72-10.47L484.72-10.47Q483.6-10.99 482.27-11.43 480.94-11.87 479.72-12.48 478.5-13.09 477.44-13.81 476.37-14.53 475.59-15.45L475.59-15.45Q473.98-17.41 473.98-20.41L473.98-20.41Q473.98-24.07 477.03-26.22L477.03-26.22Q479.74-28.15 483.7-28.15L483.7-28.15Q487.95-28.15 490.8-26.49L490.8-26.49Q491.78-25.9 491.78-25.15L491.78-25.15Q491.78-24.07 491.21-22.79 490.63-21.51 489.86-21.51 489.09-21.51 488.47-21.83 487.85-22.14 487.35-22.38 486.85-22.61 486.29-22.75L486.29-22.75Q485.06-23.12 484.03-23.12 482.99-23.12 482.35-22.97 481.72-22.83 481.21-22.51L481.21-22.51Q479.96-21.75 479.96-20.65 479.96-19.56 480.46-18.97 480.96-18.38 481.84-17.9 482.72-17.41 483.94-16.92L483.94-16.92 486.58-15.82Q489.78-14.43 490.9-13.31L490.9-13.31Q493.1-11.06 493.1-8.11L493.1-8.11Q493.1-4.39 490.56-2L490.56-2Q487.75 0.61 482.57 0.61L482.57 0.61Q477.33 0.61 474.69-1.42L474.69-1.42Q473.4-2.39 473.4-3.17 473.4-3.96 473.68-4.58 473.96-5.2 474.41-6.04 474.86-6.88 475.63-6.88 476.4-6.88 477.26-6.19 478.13-5.49 479.65-4.94 481.16-4.39 482.7-4.39ZM515.09-28.15L515.09-28.15Q521.24-28.15 522.88-22.66L522.88-22.66Q525.32-26.59 529.35-27.78L529.35-27.78Q530.72-28.17 532.79-28.17 534.87-28.17 536.81-27.15 538.75-26.12 539.69-24.48 540.63-22.83 540.89-20.85 541.14-18.87 541.14-16.6L541.14-16.6 541.14-1.61Q541.14-0.93 540.7-0.46 540.26 0 539.41 0L539.41 0 537.02 0Q536.09 0 535.65-0.46 535.21-0.93 535.21-1.61L535.21-1.61 535.21-16.82Q535.21-19.97 534.12-21.51 533.04-23.05 530.69-23.05L530.69-23.05Q528.03-23.05 526.03-20.7L526.03-20.7Q523.88-18.26 523.88-14.65L523.88-14.65 523.88-1.61Q523.88-0.93 523.44-0.46 523 0 522.15 0L522.15 0 519.75 0Q518.83 0 518.39-0.46 517.95-0.93 517.95-1.61L517.95-1.61 517.95-16.82Q517.95-19.97 516.86-21.51 515.78-23.05 513.43-23.05L513.43-23.05Q510.77-23.05 508.74-20.7L508.74-20.7Q506.62-18.26 506.62-14.65L506.62-14.65 506.62-1.61Q506.62-0.93 506.21-0.46 505.79 0 504.94 0L504.94 0 502.42 0Q501.57 0 501.13-0.46 500.69-0.93 500.69-1.61L500.69-1.61 500.69-16.6Q500.69-21.51 500.37-23.45 500.05-25.39 500.05-25.78L500.05-25.78Q500.05-27.54 501.74-27.54L501.74-27.54 503.08-27.54Q504.45-27.54 504.94-26.51L504.94-26.51Q505.52-25.27 506.06-22.66L506.06-22.66Q508.18-26.49 512.21-27.73L512.21-27.73Q513.58-28.15 515.09-28.15ZM552.91-32.25L552.91-32.25Q551.25-32.25 550.07-33.4L550.07-33.4Q548.9-34.52 548.9-36.23L548.9-36.23Q548.9-37.89 550.07-39.06L550.07-39.06Q551.2-40.19 552.91-40.19L552.91-40.19Q555.52-40.19 556.57-37.79L556.57-37.79Q556.89-37.08 556.89-36.23L556.89-36.23Q556.89-34.52 555.71-33.4L555.71-33.4Q554.54-32.25 552.91-32.25ZM555.76-25.93L555.76-6.71Q555.76-4.98 556.91-4.98L556.91-4.98Q557.3-4.98 557.79-5.2L557.79-5.2Q558.74-5.62 559.08-5.62L559.08-5.62Q559.6-5.62 559.91-4.91L559.91-4.91 560.67-3.2Q560.87-2.78 560.87-2.42L560.87-2.42Q560.87-1.37 559.06-0.46L559.06-0.46Q557.35 0.42 555.68 0.42 554.01 0.42 553 0.05 552-0.32 551.3-1.17L551.3-1.17Q549.88-2.93 549.88-6.88L549.88-6.88 549.88-25.93Q549.88-26.61 550.27-27.08 550.66-27.54 551.2-27.54L551.2-27.54 554.47-27.54Q555.03-27.54 555.4-27.08 555.76-26.61 555.76-25.93L555.76-25.93ZM572.56-41.7L572.56-6.71Q572.56-4.98 573.78-4.98L573.78-4.98Q574.17-4.98 574.78-5.2L574.78-5.2Q575.9-5.62 576.15-5.62L576.15-5.62Q576.71-5.62 577.03-4.91L577.03-4.91 577.78-3.17Q577.93-2.81 577.93-2.49L577.93-2.49Q577.93-1.93 577-1.12L577-1.12Q575.15 0.42 572.14 0.42L572.14 0.42Q566.67 0.42 566.67-6.88L566.67-6.88 566.67-41.7Q566.67-42.36 567.06-42.82 567.45-43.29 567.99-43.29L567.99-43.29 571.26-43.29Q571.82-43.29 572.19-42.82 572.56-42.36 572.56-41.7L572.56-41.7ZM587.37-12.43L587.37-12.43 587.35-11.96Q587.35-8.62 589.47-6.59L589.47-6.59Q591.7-4.44 595.5-4.44L595.5-4.44Q598.97-4.44 601.95-6.52L601.95-6.52Q602.51-6.91 602.95-6.91L602.95-6.91Q603.85-6.91 604.32-6.01L604.32-6.01 604.98-4.64Q605.2-4.15 605.2-3.59 605.2-3.03 604.7-2.43 604.2-1.83 603.39-1.34 602.58-0.85 601.52-0.49 600.46-0.12 599.34 0.12L599.34 0.12Q597.09 0.61 594.65 0.61 592.21 0.61 589.73-0.32 587.25-1.25 585.45-3.03L585.45-3.03Q581.56-6.81 581.56-13.26L581.56-13.26Q581.56-24.56 589.52-27.32L589.52-27.32Q592.01-28.17 594.64-28.17 597.26-28.17 599.11-27.61 600.95-27.05 602.29-25.95L602.29-25.95Q605.12-23.63 605.12-19.48L605.12-19.48Q605.12-15.41 601.8-13.26L601.8-13.26Q598.9-11.38 594.14-11.38L594.14-11.38Q591.21-11.38 587.37-12.43ZM599.39-19.56L599.39-19.56Q599.39-23.05 594.7-23.05L594.7-23.05Q590.23-23.05 588.45-19.78L588.45-19.78Q587.81-18.63 587.62-16.94L587.62-16.94Q589.72-15.89 592.97-15.89L592.97-15.89Q599.39-15.89 599.39-19.56Z" opacity="1" transform="matrix(1,0,0,1,0,0)" fill="#ffc604" class="slogan-text-1" data-fill-palette-color="secondary" id="text-1"></path></svg></g></svg></g></svg></g></svg></g><g transform="matrix(1,0,0,1,76.43245052889993,0)"><svg viewBox="0 0 242.6550989422001 202.74911983727227" height="202.74911983727227" width="242.6550989422001"><g><svg xmlns:dc="http://purl.org/dc/elements/1.1/" xmlns:cc="http://creativecommons.org/ns#" xmlns:rdf="http://www.w3.org/1999/02/22-rdf-syntax-ns#" xmlns:svg="http://www.w3.org/2000/svg" xmlns:sodipodi="http://sodipodi.sourceforge.net/DTD/sodipodi-0.dtd" xmlns:inkscape="http://www.inkscape.org/namespaces/inkscape" xmlns="http://www.w3.org/2000/svg" xmlns:xlink="http://www.w3.org/1999/xlink" version="1.1" x="0" y="0" viewBox="5 12.4 90 75.199" enable-background="new 0 0 100 100" xml:space="preserve" height="202.74911983727227" width="242.6550989422001" class="icon-icon-0" data-fill-palette-color="accent" id="icon-0"><path d="M12.031 12.4C8.188 12.4 5 15.589 5 19.432V61.9C5 65.743 8.188 68.931 12.031 68.931H22.086L22.297 80.673 22.438 87.599 27.43 82.783 41.844 68.931H87.969C91.813 68.931 95 65.743 95 61.9V19.432C95 15.589 91.812 12.401 87.969 12.401zM12.031 16.115H87.969C88.561 16.115 91.36 16.851 91.36 19.701V62.17C91.655 64.561 88.561 65.591 87.969 65.591H39.418L38.539 66.435 25.244 80.021 25.216 68.535 25.181 65.582H22.193L12.032 65.591C8.606 65.591 8.901 62.018 8.901 61.426V18.957C8.9 18.365 10.078 15.526 12.031 16.115" fill="#ffc604" data-fill-palette-color="accent"></path><g fill="#ffc604" data-fill-palette-color="accent"><g fill="#ffc604" data-fill-palette-color="accent"><path d="M33.498 29.801C33.498 26.981 35.538 24.761 37.937 24.761 40.457 24.761 42.377 26.741 42.377 29.801 42.377 32.681 40.637 34.721 37.877 34.721 35.417 34.721 33.498 32.681 33.498 29.801M33.498 49.42C33.498 46.66 35.538 44.441 37.937 44.441 40.457 44.441 42.377 46.421 42.377 49.42 42.377 52.36 40.637 54.4 37.877 54.4 35.417 54.4 33.498 52.36 33.498 49.42" fill="#ffc604" data-fill-palette-color="accent"></path></g><g fill="#ffc604" data-fill-palette-color="accent"><path d="M50.212 59.681C54.82 54.64 59.908 45.231 59.908 33.854 59.908 29.054 59.668 24.974 57.748 20.701H62.213C63.942 24.301 64.709 28.909 64.709 33.854 64.709 45.903 59.092 55.264 55.108 59.681z" fill="#ffc604" data-fill-palette-color="accent"></path><path d="M55.553 60.681H47.943L49.474 59.006C54.036 54.017 58.909 44.79 58.909 33.854 58.909 29.569 58.751 25.37 56.837 21.111L56.203 19.701H62.843L63.115 20.268C64.812 23.803 65.71 28.501 65.71 33.853 65.71 45.33 60.617 55.065 55.852 60.35zM52.37 58.681H54.659C59.089 53.603 63.709 44.528 63.709 33.854 63.709 29.086 62.972 24.902 61.571 21.701H59.238C60.769 25.817 60.908 29.804 60.908 33.854 60.908 44.234 56.724 53.165 52.37 58.681" fill="#ffc604" data-fill-palette-color="accent"></path></g></g></svg></g></svg></g><g></g></svg></g><defs></defs></svg><rect width="259.0661311045587" height="247.2" fill="none" stroke="none" visibility="hidden"></rect></g></svg></g></svg>